<svg id="svg2" xmlns:rdf="http://www.w3.org/1999/02/22-rdf-syntax-ns#" xmlns="http://www.w3.org/2000/svg" height="63.5mm" width="112.89mm" version="1.1" xmlns:cc="http://creativecommons.org/ns#" xmlns:xlink="http://www.w3.org/1999/xlink" viewBox="0 0 399.99999 225" xmlns:dc="http://purl.org/dc/elements/1.1/">
 <defs id="defs4">
  <filter id="z" style="color-interpolation-filters:sRGB" height="1.1841" width="1.1545" y="-.092055" x="-.077241">
   <feGaussianBlur id="feGaussianBlur138344" stdDeviation="2.7243473"/>
  </filter>
  <filter id="y" style="color-interpolation-filters:sRGB" height="1.323" width="1.4733" y="-.16152" x="-.23665">
   <feGaussianBlur id="feGaussianBlur138412" stdDeviation="1.7445433"/>
  </filter>
  <filter id="x" style="color-interpolation-filters:sRGB" height="1.4106" width="1.4054" y="-.20530" x="-.20271">
   <feGaussianBlur id="feGaussianBlur138488" stdDeviation="3.0618085"/>
  </filter>
  <filter id="w" style="color-interpolation-filters:sRGB" height="1.1288" width="1.3772" y="-.064386" x="-.18861">
   <feGaussianBlur id="feGaussianBlur138524" stdDeviation="2.5629656"/>
  </filter>
  <filter id="v" style="color-interpolation-filters:sRGB" height="1.1983" width="1.5256" y="-.099171" x="-.26279">
   <feGaussianBlur id="feGaussianBlur138588" stdDeviation="2.5459514"/>
  </filter>
  <filter id="u" style="color-interpolation-filters:sRGB" height="1.3083" width="1.3158" y="-.15414" x="-.15791">
   <feGaussianBlur id="feGaussianBlur138644" stdDeviation="0.70432819"/>
  </filter>
  <filter id="t" style="color-interpolation-filters:sRGB" height="1.1797" width="1.2706" y="-.089860" x="-.13532">
   <feGaussianBlur id="feGaussianBlur138684" stdDeviation="0.56732471"/>
  </filter>
  <filter id="s" style="color-interpolation-filters:sRGB" height="1.8671" width="1.2466" y="-.43355" x="-.12330">
   <feGaussianBlur id="feGaussianBlur138760" stdDeviation="0.7071068"/>
  </filter>
  <filter id="r" style="color-interpolation-filters:sRGB" height="1.1591" width="1.242" y="-.079556" x="-.12101">
   <feGaussianBlur id="feGaussianBlur138800" stdDeviation="0.8454915"/>
  </filter>
  <filter id="q" style="color-interpolation-filters:sRGB" height="1.1735" width="1.0664" y="-.086756" x="-.033178">
   <feGaussianBlur id="feGaussianBlur138818" stdDeviation="0.65634172"/>
  </filter>
  <linearGradient id="e" y2="636.91" gradientUnits="userSpaceOnUse" x2="-683.79" y1="619.82" x1="-685.22">
   <stop id="stop138822" stop-color="#c63d2c" offset="0"/>
   <stop id="stop138824" stop-color="#b5573d" stop-opacity=".96107" offset="1"/>
  </linearGradient>
  <linearGradient id="d" y2="653.24" gradientUnits="userSpaceOnUse" x2="-682.94" y1="637.34" x1="-685.9">
   <stop id="stop138830" stop-color="#aa4938" offset="0"/>
   <stop id="stop138832" stop-color="#c37155" offset="1"/>
  </linearGradient>
  <filter id="p" style="color-interpolation-filters:sRGB" height="1.2824" width="1.0762" y="-.14118" x="-.038095">
   <feGaussianBlur id="feGaussianBlur138866" stdDeviation="0.50507642"/>
  </filter>
  <filter id="o" style="color-interpolation-filters:sRGB" height="1.3376" width="1.0915" y="-.16878" x="-.045761">
   <feGaussianBlur id="feGaussianBlur138920" stdDeviation="0.6226506"/>
  </filter>
  <filter id="b" style="color-interpolation-filters:sRGB" height="1.6188" width="1.1678" y="-.30942" x="-.083895">
   <feGaussianBlur id="feGaussianBlur138946" stdDeviation="1.1415261"/>
  </filter>
  <linearGradient id="c" y2="640.45" gradientUnits="userSpaceOnUse" x2="-695.08" y1="645.44" x1="-660.07">
   <stop id="stop138952" stop-color="#dc9c8a" offset="0"/>
   <stop id="stop138954" stop-color="#dc9c8a" stop-opacity="0" offset="1"/>
  </linearGradient>
  <filter id="n" style="color-interpolation-filters:sRGB" height="1.2358" width="1.1305" y="-.11790" x="-.065242">
   <feGaussianBlur id="feGaussianBlur138984" stdDeviation="0.74188662"/>
  </filter>
  <filter id="m" style="color-interpolation-filters:sRGB" height="1.2047" width="1.1424" y="-.10237" x="-.071220">
   <feGaussianBlur id="feGaussianBlur139022" stdDeviation="0.87375609"/>
  </filter>
  <filter id="l" style="color-interpolation-filters:sRGB" height="1.3448" width="1.3766" y="-.17240" x="-.18830">
   <feGaussianBlur id="feGaussianBlur139090" stdDeviation="0.25014086"/>
  </filter>
  <filter id="k" style="color-interpolation-filters:sRGB" height="1.2207" width="1.1069" y="-.11037" x="-.053427">
   <feGaussianBlur id="feGaussianBlur139118" stdDeviation="0.4387194"/>
  </filter>
  <filter id="j" style="color-interpolation-filters:sRGB" height="1.2661" width="1.0987" y="-.13305" x="-.049354">
   <feGaussianBlur id="feGaussianBlur139158" stdDeviation="0.8519525"/>
  </filter>
  <filter id="i" style="color-interpolation-filters:sRGB" height="1.2157" width="1.0831" y="-.10783" x="-.041563">
   <feGaussianBlur id="feGaussianBlur139182" stdDeviation="0.83399203"/>
  </filter>
  <filter id="h" style="color-interpolation-filters:sRGB" height="1.2918" width="1.118" y="-.14588" x="-.058980">
   <feGaussianBlur id="feGaussianBlur139210" stdDeviation="0.9185142"/>
  </filter>
  <filter id="g" style="color-interpolation-filters:sRGB" height="1.4401" width="1.3803" y="-.22005" x="-.19013">
   <feGaussianBlur id="feGaussianBlur139289" stdDeviation="0.4011269"/>
  </filter>
  <filter id="a" style="color-interpolation-filters:sRGB" height="1.0931" width="1.0991" y="-.046545" x="-.049548">
   <feGaussianBlur id="feGaussianBlur139314" stdDeviation="1.9394928"/>
  </filter>
  <filter id="f" style="color-interpolation-filters:sRGB" height="1.1171" width="1.123" y="-.058571" x="-0.0615">
   <feGaussianBlur id="feGaussianBlur139340" stdDeviation="2.5885159"/>
  </filter>
 </defs>
 <g id="layer1" transform="translate(820.23 -550.72)">
  <g id="g139407" fill-rule="evenodd">
   <rect id="rect139405" opacity="0.812" rx="8.4092" ry="7.1938" height="225" width="400" y="550.72" x="-820.23" fill="#def5e7"/>
   <g id="g139364" transform="matrix(.52483 0 0 .50894 -291.65 325.46)">
    <path id="path138256" d="m-642.96 480.62c25.579 8.478 19.247 1.9424 35.355 23.234 12.805 9.0672 16.356 26.547 22.223 41.921-.67344 13.34-1.3469 28.137-2.0203 38.386-.32802 7.1074.72008 14.628 7.0711 23.739-4.2772 8.4544-8.5062 16.764-12.122 23.234-3.1452 6.6885-10.342 11.756-16.668 17.173-16.57 12.048-36.174 19.372-54.548 23.234-4.8085 1.3675-9.6362 2.7732-13.132 1.5152-10.599-.13775-13.505-3.3525-17.678-6.0609-8.4717-10.598-8.776-13.628-11.869-19.445l-7.8287-20.708c-4.9907-10.103-7.8081-25.097-10.607-35.86 1.0573-9.7185 3.15-18.108 5.5558-26.516-.0203-9.9399-1.8498-20.483 0-29.8l3.5355-20.203c3.6253-12.72 11.992-22.73 20.203-32.83 8.4179-2.6937 15.826-3.7039 22.223-3.0305l10.859 3.283 10.859-1.7678s6.566-2.5254 6.0609 3.5355c-.50507 6.0609 2.5254-3.0305 2.5254-3.0305z" fill="#ecbb9d"/>
    <path id="path138276" d="m-715.59 557.99c-.71717 2.1367.008 3.0115.58988 4.0115 3.7207 3.8791 9.5041 4.3829 15 5.3571 6.413.53362 5.901-.71985 7.5-1.4286-.12654-5.7107-2.7918-7.3746-4.3074-8.0682-5.0142-2.5951-11.796-4.1477-14.244-3.9267-4.116.59288-3.9534 2.4951-4.5383 4.0548z" fill="#a9a6a6"/>
    <path id="path138270" d="m-717.79 560.61c1.3862 2.6374 1.4849 6.2977 4.6862 9.5401 2.8382-1.1249 5.4607-1.3152 7.794-.25254 5.0062-.22314 5.2786-1.3931 7.2276-2.2276-2.4091-.742-3.2004-1.9098-8.5102-1.8885-4.463-.17579-7.5009-3.31-11.198-5.1715z" filter="url(#k)" fill="#41464c"/>
    <path id="path138274" opacity="0.839" d="m-693.93 563.43v3.9286c1.3652-1.3974 3.5468-1.3846 3.2143-5.7143-.51291-3.6144-5.2315-8.3369-7.8571-10.357-3.396-3.3763-11.573-4.743-15.673-4.347-3.1005.83797-5.3002 2.0963-5.8802 4.1106.97948 7.933 1.6284 10.551 2.2889 9.1452 2.758-5.876 4.4313-5.0264 6.4069-6.0516 6.572.22569 11.201 3.2902 15.947 5.1894.51766 1.3654 1.0353 1.0613 1.553 4.0963z" filter="url(#m)" fill="#2b201e"/>
    <path id="path138258" d="m-663.67 537.69c2.1871 1.0884 13.231-2.6183 15.476-1.1301 2.2211.36507 2.9243-1.4263 3.7167-1.3953 4.1318 1.0075 11.039.61652 20.203 0 8.6652-.21702 14.221 4.5886 20.203 7.0711-4.7212-2.8978-9.6338-6.7525-14.142-8.5863-1.0652-1.4469-2.0482-2.8733-4.9641-4.7829-4.6613-1.155-8.1432-2.5721-14.734-3.2983-9.6972.30614-16.578 1.6851-21.277 3.8953-4.0066 3.4122-3.8741 5.7207-4.4818 8.2265z" fill="#4c372b"/>
    <path id="path138260" d="m-719.23 535.67c6.6705-3.5105 12.533.51057 15.691 2.9718 6.4284-1.9248 7.9677.20206 11.078 2.079-3.5465-3.7185-6.6552-6.8533-12.122-13.132-2.5236-1.4719-5.9478-3.0222-12.242-2.9105-1.6968 6.8182-1.811 7.2653-2.5814 8.525z" fill="#61433a"/>
    <path id="path138264" d="m-696.5 635.67c-1.4039.45077-2.9773 1.2406-5.0508 3.0305 4.0406 4.209 2.9681 6.1192 12.122 12.627 4.1786 1.1297 8.0288 2.6426 14.142 1.5152 6.295-.88695 8.2005-2.5055 10.607-4.0406-8.2289-2.1835-14.002-3.7532-24.749-6.566 4.0414-.21635 10.319-.11326 16.668 0 7.1302-.60292 11.082-1.6031 15.657-2.5254-4.4685-.37318-15.021-3.2052-18.183-3.0305-3.5353-.60928-4.5386-1.098-14.647-2.0203-2.1887.82702-4.3773.81406-6.566 1.0102z" fill="url(#d)"/>
    <path id="path138802" opacity="0.874" d="m-655.59 640.57c-1.5398-.74323-1.7432-.74394-6.0609-3.0305-3.4344-3.9516-4.118-6.3883-14.142-13.132-3.3672-1.617-6.7344.29615-10.102.50507-5.5476-3.5595-5.695-2.3846-8.5863-2.0203-6.3064 3.3424-6.2136 7.6692-8.5863 11.617 2.1887 2.6489 4.3773 2.177 6.566 3.0305 2.9656-.43711 4.3784-1.2624 6.0609-2.0203 2.9299 1.1964 6.5524 3.14 8.5863 2.5254 5.5099-1.3239 6.1032-.18952 8.5863 0 7.0619 3.0364 12.41 2.1893 17.678 2.5254z" filter="url(#q)" fill="#7a3a29"/>
    <path id="path138262" d="m-655.59 639.41c-1.5398-.74323-1.7432-.74394-6.0609-3.0305-3.4344-3.9516-4.118-6.3883-14.142-13.132-3.3672-1.617-6.7344.29615-10.102.50507-5.5476-3.5595-5.695-2.3846-8.5863-2.0203-6.3064 3.3424-6.2136 7.6692-8.5863 11.617 2.1887 2.6489 4.3773 2.177 6.566 3.0305 2.9656-.43711 4.3784-1.2624 6.0609-2.0203 2.9299 1.1964 6.5524 3.14 8.5863 2.5254 5.5099-1.3239 6.1032-.18952 8.5863 0 7.0619 3.0364 12.41 2.1893 17.678 2.5254z" fill="url(#e)"/>
    <path id="path138266" d="m-657.1 639.71c-1.7745 3.9885-3.8078 7.5886-7.5762 8.5863-8.0812-1.3392-16.162-3.5433-24.244-6.566 6.3488.60837 12.337.73595 17.678 0 5.6621-.29421 10.158-1.0551 14.142-2.0203z" filter="url(#p)" fill="#dc9c8a"/>
    <path id="path138268" opacity="0.849" d="m-650.79 570.01c5.3173.62205 10.206 1.9577 16.162 1.5152 5.6793.83771 11.542-.46619 14.647-4.5457 1.3637-2.8181 2.2366-5.4096 6.566-9.5964-2.1208-.0426-2.0392-2.1499-7.5762 1.0102-.87345 4.8131-4.6848 5.4293-7.0711 8.0812-4.694.33672-7.9562.67343-16.609.028-1.1934.20625-3.2624 3.009-6.1196 3.5075z" filter="url(#h)" fill="#4d6a68"/>
    <path id="path138272" opacity="0.879" d="m-613.21 553.43c-.36423 3.9368-4.6059 4.6803-8.9286 5.3572-8.8033-6.8923-17.554-7.2152-23.214-3.9286-3.4268 3.3301-8.8408 10.209-9.2857 8.2143.77339-4.5536 2.8383-8.892 9.2857-12.5 6.851-2.3425 10.727-3.4608 17.321-1.5179 4.9018 1.6514 9.701 3.8166 14.821 4.375z" filter="url(#j)" fill="#635547"/>
    <path id="path138278" d="m-651.43 560.93c-.45203 1.5234-.61875 2.7616-.35715 3.5714 6.7055 2.2524 9.8434 1.73 14.643 2.5 4.3515.43469 6.8925-.0359 9.9107-.26786 6.4072-4.1323 4.9459-5.367 4.9107-7.2321l-2.3214-1.7857c-5.2383-4.0192-14.534-5.0842-19.286-2.8572-5.2678 2.2083-5.4664 4.0787-7.5 6.0714z" fill="#cbc2bc"/>
    <path id="path138280" opacity="0.689" d="m-638.4 553.73c-1.4634.0439-2.8298.24703-4.0312.59375a9.375 9.1964 0 0 0 -.95703 4.0215 9.375 9.1964 0 0 0 6.2578 8.6621c2.4536.24459 4.3165.19416 6.0293.0684a9.375 9.1964 0 0 0 6.4629 -8.7305 9.375 9.1964 0 0 0 -.0234 -.64063c-3.6018-2.7518-9.1059-4.1135-13.738-3.9746z" fill="#58c891"/>
    <path id="ellipse138286" opacity="0.812" d="m-635.31 554.42a3.7977 4.0411 84.403 0 0 -1.1244 3.0008 3.7977 4.0411 84.403 0 0 4.3929 3.3865 3.7977 4.0411 84.403 0 0 3.6519 -4.1749 3.7977 4.0411 84.403 0 0 -.14155 -.69438c-2.3631-.88344-4.6372-1.3717-6.779-1.5179z" fill="#285740"/>
    <path id="path138991" opacity=".28405" d="m-752.5 531.39a7.6506 7.3241 0 0 0 -.45703 .0156c2.6852 2.2577 6.5991 6.4275 7.0645 9.707.0359.46784.0381.8763.0195 1.25a7.6506 7.3241 0 0 0 1.0234 -3.6484 7.6506 7.3241 0 0 0 -7.6504 -7.3242z" fill="#69f0ae"/>
    <path id="ellipse138282" opacity="0.493" d="m-703.99 555.67a7.6506 7.3241 0 0 0 -.98243 3.584 7.6506 7.3241 0 0 0 7.6504 7.3242 7.6506 7.3241 0 0 0 3.3945 -.76367v-2.377c-.51766-3.035-1.037-2.7303-1.5547-4.0957-2.7396-1.0963-5.4502-2.5692-8.5078-3.6719z" fill="#06eb7b"/>
    <path id="ellipse138284" opacity="0.583" d="m-700.68 556.9c-.23025.45956-.34955.95688-.3502 1.4599-.0903 1.6319.47419 4.1376 3.1594 4.3163 2.7355-.0903 2.9308-1.0712 3.6831-1.708-.27826-.47914-.55859-.80783-.83684-1.5418-1.868-.7475-3.726-1.649-5.6554-2.5264z" fill="#080808"/>
    <ellipse id="ellipse138288" opacity="0.508" rx="2.5316" ry="2.1875" filter="url(#g)" cy="557.3" cx="-639.42" fill="#e6e6e6"/>
    <ellipse id="ellipse138290" opacity="0.658" rx="1.5941" ry="1.7411" filter="url(#l)" cy="559.1" cx="-702.77" fill="#dedede"/>
    <path id="path138292" opacity=".728" d="m-692.46 543.25c2.7034 6.9385 11.549 16.544 4.2932 33.335l-5.0508 11.617c-1.583 2.7722-7.5988 4.8032-9.849 12.627-2.7924.24146-3.9981 4.2772-5.5558-15.405 5.4511-.15755 10.458-3.7173 14.9-11.617 1.7467-3.6578 4.5517-4.5636 4.7982-12.122-.39095-4.0898-.24174-7.5155-10.607-17.93l-3.7881-4.0406c4.0886 3.2101 7.7797 4.6981 10.859 3.5355z" filter="url(#v)" fill="#a67a5b"/>
    <path id="path138294" opacity="0.824" d="m-694.61 592.11c-.95782 5.1414-3.2872 10.402 3.1567 14.9 2.7605 2.4155 5.3037 4.2874 8.0812 5.6821.85628 2.1562.318 3.3828.25254 4.9245-1.6268-1.743-2.3685-3.2648-2.6516-4.672-2.7849-.36632-5.2615-2.5586-8.0812-4.5457-2.1253-.52731-4.3315-.64983-5.8084-4.4194.0422-1.0607.19827-2.1441 1.894-3.5355l-.75762-2.9042c.18536-3.2091 2.5352-3.7127 3.9143-5.4296z" filter="url(#r)" fill="#a86e48"/>
    <path id="path138296" opacity="0.834" d="m-690.94 587.69c.75761 2.9252 1.5152 6.7238 2.2728 5.8084 2.4133 2.1186 4.7106 2.4618 6.4397 1.894-1.4209 1.1693-.42819 3.8295-4.9245 3.1567-2.3689-.75514-3.7958-.92827-5.5558-1.389-.60261-2.8162.0134-5.9806 1.7678-9.4702z" filter="url(#u)" fill="#d9a07a"/>
    <path id="path138298" opacity="0.804" d="m-670.11 609.03c-1.7677-.92597-2.0417-1.852-2.9042-2.7779.12224.20081-.90068.5755-6.4397.12627l-2.3991-.25254c-.13691.88388.56157 1.7678-1.7678 2.6516 1.0832.60474 1.7356.99405 2.1466 1.2627.38635-2.4726 1.1921-2.0093 1.894-2.2728.99806.24045 1.4216-.0937 3.0305.75762 1.7071-.39448 2.4365-.13714 3.1567.12627l3.5355 1.0102z" filter="url(#s)" fill="#5c3c2c"/>
    <path id="path138300" opacity=".85" d="m-667.96 597.16c1.0667 6.5277 10.701 10.14-2.7779 15.152-1.9695-.75761-3.6643-1.5152-2.6516-2.2728 5.5454.85162 8.0383-2.1757 7.5761-6.4397-.73842-.74213-1.8716-2.6685-3.283-5.4296z" filter="url(#t)" fill="#d29c81"/>
    <path id="path138302" opacity=".844" d="m-654.07 558.9-2.7779.3788c-.56572-6.446 3.8584-9.7735 6.8185-14.016 3.3458-2.537 9.8368-3.3585 15.657-4.5457 16.793 2.2357 19.797 5.8779 25.001 8.3338.52173 2.2337 1.3677 4.6737-.63135 5.3033-2.4334-.11692-4.5954-1.0323-6.8185-1.7678-3.684-.96167-8.3275-3.216-16.92-5.0508-3.5526.15112-6.7716 1.303-10.108 2.1032l-5.4755 3.357z" filter="url(#i)" fill="#d7b9ae"/>
    <path id="path138304" opacity="0.726" d="m-716.58 542.11c-4.4582 2.0624-2.2372 5.3958-2.2728 6.1872 3.283-2.0525 6.566-2.038 9.849-1.7678l8.5863 3.0304c2.4388 1.5585 4.6287 4.1569 6.7554 5.8715 1.336 1.2198 1.576.2478 1.5784-1.1996-1.6585-2.8705-4.7502-5.2632-7.3236-7.8287-2.4519-2.688-6.0871-4.5759-9.5964-5.3033-3.2728-.71869-5.4093.55108-8.0812.88388z" filter="url(#n)" fill="#c19b88"/>
    <path id="path138306" opacity=".769" d="m-609.46 559.15c-4.9619-.24555-5.8552 4.1587-7.6786 7.5-.73379 5.2946-.97817 6.1844-1.25 7.3214 3.7806 8.5782-4.7419 17.878 16.429 1.4286 3.5215-4.7442-1.6497-8.7868.35715-11.964-2.619-7.7499-5.2381-3.8379-7.8572-4.2857z" filter="url(#y)" fill="#bfc3b6"/>
    <path id="path138308" opacity="0.836" d="m-690.71 612.36c-1.5702 2.906 1.9744 1.082-6.389 8.9286-5.5171 3.9769-5.7879 7.2044-6.7857 10.536-.27683 5.0896 2.5747 10.832 10.318 18.929-.39368 2.2233-.79826 4.4085-.53571 8.9286l1.9643 7.6786c-4.2269-7.6166-9.4649-11.863-12.679-22.857-6.0702-15.135-12.011-25.61-18.393-51.964.8974-6.4798-2.5985-9.445 4.2857-20.714l5.5357 13.214c2.4405 2.3567 4.881.17259 7.3214-.17858 1.5612 2.1209 2.7116.85259 5.5357 13.393.38742 3.374-1.8846 6.5062 1.7857 10.179 2.3966 4.6928 5.3405 2.8187 8.0357 3.9286z" filter="url(#w)" fill="#d09878"/>
    <path id="path139294" d="m-649.28 479.35c11.769 3.6269 21.749 8.1088 30.157 9.719l11.007 13.009c8.3178 9.5692 11.382 17.737 15.744 24.009l6.5227 24.096-1.7244 35.59c-1.3906 8.4179 2.0974 17.193 7.3669 25.611-2.259 12.207-4.5506 28.538-4.9895 29.825-4.3919 16.123-5.9615 29.014-4.2932 34.363 2.7689 17.439 9.4914 25.15 15.509 31.542 6.94 15.894 18.439 23.695 32.787 28.815 3.9229 5.2133 9.002 7.7286 11.112 17.173.12798 15.425.22774 31.216 1.0102 38.133 10.316-3.0604 12.724 22.878 17.425 40.406 1.7743 18.071 10.65 38.678-5.0508 50.508l39.143-.75761c9.2104-26.669 24.799-6.9547 8.3338-30.81-2.3687-1.121-1.4195-4.2327-.50507-7.3236 17.77 22.681 11.951-3.0614 13.637-14.395 1.4947-9.6731 18.327-14.114 14.647-23.234 1.4419-6.2239-3.1501-15.465-8.3338-25.001 1.5752-11.364-1.2314-22.728-2.7779-34.093-17.767-5.6912-22.739-12.093-28.789-18.435-8.3638-17.705-1.7258-19.525.50508-26.011 7.8952-5.0897 6.2956-13.028 8.0812-19.951 19.206-41.457-10.377-43.739-10.607-48.235-12.316-14.06-15.516-34.593-19.698-49.497-4.3777-20.155-3.7046-39.588-3.5355-59.094l-2.0203-8.0812-5.5558 6.3135c-.63375-6.0536.71419-17.587 2.0203-28.789-4.0856-2.7649-25.761-46.365-36.113-47.73-45.317-6.5916-109.77-2.0203-164.65-3.0305-9.5718 3.8931-12.076 11.835-21.213 25.001-1.9711.78845-6.8451 41.034-4.5457 40.406 5.8948-1.6094-2.8526 23.006-3.5355 23.234-15.594 19.832-30.243 7.8838-44.447 6.0609 8.2468 7.4458 15.664 15.484 37.628 13.132-16.502 9.3526-11.862 16.591-16.415 24.749 3.8631 41.219 25.122 37.977 21.466 63.387-.63999 12.3-9.0939 21.181-20.456 28.789-7.0074 22.588 2.6937 22.392 4.0406 33.588-8.1167-34.334 8.1994-32.956 12.627-38.638 11.57-3.3496 12.085-14.437 17.678-21.971 2.5827 9.1986.92792 21.005-13.89 40.911-4.9537 26.566 15.489 24.749 23.234 37.123 20.341 32.729 9.2624 42.12 5.3033 46.72-16.004 15.224-30.211 10.539-43.184 9.3439 8.5835 1.4914 9.1752 5.4528 37.628 2.0203 4.0994 4.2136 5.8824 16.535 7.3236 30.052 6.3144-33.21 17.742-20.722 22.728-40.659-1.8271-25.623 6.8618-28.441-8.5863-54.548 6.3745 7.4067 12.859 15.417 17.93 15.657-8.0895-20.809-4.1993-17.658-5.0508-23.991 6.3797 11.784 12.995 20.269 20.708 13.385-1.5935-21.735-1.786-33.951-4.0406-44.447-13.163 3.1099-23.246-3.5592-28.032-8.8388-11.504-22.869-18.056-47.911-27.004-73.976-.84298-4.5877 3.0185-17.016 4.5278-25.524-.8735-18.613 2.772-38.678 10.625-65.346l13.872-18.497c14.255-4.6326 16.939-3.6109 22.92-3.7881 4.6907 2.0967 12.649 4.9256 13.698 5.8084 4.4738.43322 6.2262-1.855 8.0812-4.0406z" fill="#51332b"/>
    <path id="path138314" d="m-582.61 610.93-12.122 27.022-22.223 16.668-38.638 16.415-16.92 4.0406 5.5558 35.355 42.679-46.972 22.981-14.395 14.647-17.93.50507 11.364 7.5762-12.627-2.2728-19.445z" filter="url(#a)" fill="#a46f50"/>
    <path id="path138310" opacity="0.791" d="m-598.04 581.29c-11.519 8.5007-23.674 16.901-26.429 26.786.23062 2.8296-1.1034 5.8634 9.6429 7.3214 9.1756-.23211 22.536-4.1032 24.286-12.5-.93261.98577.42271-9.0868 2.3214-21.786-2.2497-1.2572-4.335-2.7257-9.8214.17858z" filter="url(#x)" fill="#dea480"/>
    <path id="path138312" opacity="0.865" d="m-634.29 503.61c-14.161 4.7238-31.497 4.861-40.179 17.5-1.5138 7.9636-5.5683 13.618-.17857 27.857-1.9818 5.2794-5.1924 7.6096-10.536 4.8214-8.6713-12.212-4.7915-31.031-26.071-36.607-3.5117-2.996 2.133-17.951 16.786-31.25 16.817-4.5454 20.464.027 29.464.89286 9.7902 2.6863 19.618 3.1684 29.464 2.5 11.476 4.7619 9.2262 9.5238 1.25 14.286z" filter="url(#z)" fill="#e4ad8f"/>
    <path id="path139316" d="m-582.61 610.93-12.122 27.022-22.223 16.668-38.638 16.415-16.92 4.0406 5.5558 35.355 42.679-46.972 22.981-14.395 14.647-17.93.50507 11.364 7.5762-12.627-2.2728-19.445z" filter="url(#a)" fill="#a46f50"/>
    <path id="path138316" d="m-667.46 710.93-6.8185 20.708 12.879-3.0305 8.5863 9.0914 20.961-14.647 40.911-13.89 17.678-4.7982-15.405-29.547 2.0203-28.537 3.283-8.3338-3.7881-6.3134-15.152 18.183-21.718 14.142z" filter="url(#f)" fill="#e1aa89"/>
    <path id="path138868" opacity=".80731" d="m-657.01 639.71c-1.328 3.8099-3.9864 7.8564-7.7547 8.8542-7.5761-1.718-19.25-4.3946-24.901-6.4397 4.8291-.36934 14.602.25253 18.514-.39413 3.43-.47278 7.2111-.51936 14.142-2.0203z" filter="url(#o)" fill="#dc9c8a"/>
    <path id="path138922" opacity=".71262" d="m-659.67 639.71c-1.328 3.8099-3.9864 7.8564-7.7547 8.8542-7.5761-1.718-19.25-4.3946-24.901-6.4397 4.8291-.36934 14.602.25253 18.514-.39413 3.43-.47278 7.2111-.51936 14.142-2.0203z" filter="url(#b)" fill="#dc9c8a"/>
    <path id="path138948" opacity=".71262" d="m-662.32 639.21c-1.328 3.8099-3.9864 7.8564-7.7547 8.8542-7.5761-1.718-19.25-4.3946-24.901-6.4397 4.8291-.36934 14.602.25253 18.514-.39413 3.43-.47278 7.2111-.51936 14.142-2.0203z" filter="url(#b)" fill="url(#c)"/>
    <path id="path139342" d="m-668.17 713.79-6.8185 20.708 12.879-3.0305 8.5863 9.0914 20.961-14.647 40.911-13.89 17.678-4.7982-15.405-29.547 2.0203-28.537 3.283-8.3338-3.7881-6.3134-15.152 18.183-21.718 14.142z" fill="#e1aa89"/>
   </g>
  </g>
 </g>
</svg>

      <stop
         style="stop-color:#b5573d;stop-opacity:0.96106559"
         offset="1"
         id="stop138824" />
    </linearGradient>
    <filter
       inkscape:collect="always"
       style="color-interpolation-filters:sRGB"
       id="filter138342"
       x="-0.077241078"
       width="1.1544822"
       y="-0.092055224"
       height="1.1841104">
      <feGaussianBlur
         inkscape:collect="always"
         stdDeviation="2.7243473"
         id="feGaussianBlur138344" />
    </filter>
    <filter
       inkscape:collect="always"
       style="color-interpolation-filters:sRGB"
       id="filter138410"
       x="-0.23665103"
       width="1.4733021"
       y="-0.16152386"
       height="1.3230478">
      <feGaussianBlur
         inkscape:collect="always"
         stdDeviation="1.7445433"
         id="feGaussianBlur138412" />
    </filter>
    <filter
       inkscape:collect="always"
       style="color-interpolation-filters:sRGB"
       id="filter138486"
       x="-0.20271283"
       width="1.4054257"
       y="-0.20530361"
       height="1.4106072">
      <feGaussianBlur
         inkscape:collect="always"
         stdDeviation="3.0618085"
         id="feGaussianBlur138488" />
    </filter>
    <filter
       inkscape:collect="always"
       style="color-interpolation-filters:sRGB"
       id="filter138522"
       x="-0.18861187"
       width="1.3772237"
       y="-0.064385533"
       height="1.1287711">
      <feGaussianBlur
         inkscape:collect="always"
         stdDeviation="2.5629656"
         id="feGaussianBlur138524" />
    </filter>
    <filter
       inkscape:collect="always"
       style="color-interpolation-filters:sRGB"
       id="filter138586"
       x="-0.26278996"
       width="1.5255799"
       y="-0.099171244"
       height="1.1983424">
      <feGaussianBlur
         inkscape:collect="always"
         stdDeviation="2.5459514"
         id="feGaussianBlur138588" />
    </filter>
    <filter
       inkscape:collect="always"
       style="color-interpolation-filters:sRGB"
       id="filter138642"
       x="-0.15790559"
       width="1.3158112"
       y="-0.15413985"
       height="1.3082798">
      <feGaussianBlur
         inkscape:collect="always"
         stdDeviation="0.70432819"
         id="feGaussianBlur138644" />
    </filter>
    <filter
       inkscape:collect="always"
       style="color-interpolation-filters:sRGB"
       id="filter138682"
       x="-0.13531706"
       width="1.2706341"
       y="-0.089859642"
       height="1.1797193">
      <feGaussianBlur
         inkscape:collect="always"
         stdDeviation="0.56732471"
         id="feGaussianBlur138684" />
    </filter>
    <filter
       inkscape:collect="always"
       style="color-interpolation-filters:sRGB"
       id="filter138758"
       x="-0.12330274"
       width="1.2466055"
       y="-0.43354851"
       height="1.867097">
      <feGaussianBlur
         inkscape:collect="always"
         stdDeviation="0.7071068"
         id="feGaussianBlur138760" />
    </filter>
    <filter
       inkscape:collect="always"
       style="color-interpolation-filters:sRGB"
       id="filter138798"
       x="-0.12101338"
       width="1.2420268"
       y="-0.079555862"
       height="1.1591117">
      <feGaussianBlur
         inkscape:collect="always"
         stdDeviation="0.8454915"
         id="feGaussianBlur138800" />
    </filter>
    <filter
       inkscape:collect="always"
       style="color-interpolation-filters:sRGB"
       id="filter138816"
       x="-0.033178475"
       width="1.066357"
       y="-0.086755522"
       height="1.173511">
      <feGaussianBlur
         inkscape:collect="always"
         stdDeviation="0.65634172"
         id="feGaussianBlur138818" />
    </filter>
    <linearGradient
       inkscape:collect="always"
       xlink:href="#linearGradient138820"
       id="linearGradient138826"
       x1="-685.22327"
       y1="619.81964"
       x2="-683.78906"
       y2="636.90521"
       gradientUnits="userSpaceOnUse" />
    <linearGradient
       inkscape:collect="always"
       xlink:href="#linearGradient138828"
       id="linearGradient138834"
       x1="-685.89642"
       y1="637.34271"
       x2="-682.93732"
       y2="653.24463"
       gradientUnits="userSpaceOnUse" />
    <filter
       inkscape:collect="always"
       style="color-interpolation-filters:sRGB"
       id="filter138864"
       x="-0.038095243"
       width="1.0761905"
       y="-0.14117646"
       height="1.2823529">
      <feGaussianBlur
         inkscape:collect="always"
         stdDeviation="0.50507642"
         id="feGaussianBlur138866" />
    </filter>
    <filter
       inkscape:collect="always"
       style="color-interpolation-filters:sRGB"
       id="filter138918"
       x="-0.04576087"
       width="1.0915217"
       y="-0.16877507"
       height="1.33755">
      <feGaussianBlur
         inkscape:collect="always"
         stdDeviation="0.6226506"
         id="feGaussianBlur138920" />
    </filter>
    <filter
       inkscape:collect="always"
       style="color-interpolation-filters:sRGB"
       id="filter138944"
       x="-0.083894923"
       width="1.1677899"
       y="-0.30942094"
       height="1.6188419">
      <feGaussianBlur
         inkscape:collect="always"
         stdDeviation="1.1415261"
         id="feGaussianBlur138946" />
    </filter>
    <linearGradient
       inkscape:collect="always"
       xlink:href="#linearGradient138950"
       id="linearGradient138956"
       x1="-660.06683"
       y1="645.43524"
       x2="-695.07898"
       y2="640.44958"
       gradientUnits="userSpaceOnUse" />
    <filter
       inkscape:collect="always"
       style="color-interpolation-filters:sRGB"
       id="filter138982"
       x="-0.065241963"
       width="1.1304839"
       y="-0.11789721"
       height="1.2357944">
      <feGaussianBlur
         inkscape:collect="always"
         stdDeviation="0.74188662"
         id="feGaussianBlur138984" />
    </filter>
    <filter
       inkscape:collect="always"
       style="color-interpolation-filters:sRGB"
       id="filter139020"
       x="-0.071220122"
       width="1.1424402"
       y="-0.10236936"
       height="1.2047387">
      <feGaussianBlur
         inkscape:collect="always"
         stdDeviation="0.87375609"
         id="feGaussianBlur139022" />
    </filter>
    <filter
       inkscape:collect="always"
       style="color-interpolation-filters:sRGB"
       id="filter139088"
       x="-0.1882953"
       width="1.3765906"
       y="-0.17240475"
       height="1.3448095">
      <feGaussianBlur
         inkscape:collect="always"
         stdDeviation="0.25014086"
         id="feGaussianBlur139090" />
    </filter>
    <filter
       inkscape:collect="always"
       style="color-interpolation-filters:sRGB"
       id="filter139116"
       x="-0.053426757"
       width="1.1068535"
       y="-0.11036839"
       height="1.2207367">
      <feGaussianBlur
         inkscape:collect="always"
         stdDeviation="0.4387194"
         id="feGaussianBlur139118" />
    </filter>
    <filter
       inkscape:collect="always"
       style="color-interpolation-filters:sRGB"
       id="filter139156"
       x="-0.04935449"
       width="1.098709"
       y="-0.133046"
       height="1.2660919">
      <feGaussianBlur
         inkscape:collect="always"
         stdDeviation="0.8519525"
         id="feGaussianBlur139158" />
    </filter>
    <filter
       inkscape:collect="always"
       style="color-interpolation-filters:sRGB"
       id="filter139180"
       x="-0.041562952"
       width="1.0831259"
       y="-0.10783479"
       height="1.2156696">
      <feGaussianBlur
         inkscape:collect="always"
         stdDeviation="0.83399203"
         id="feGaussianBlur139182" />
    </filter>
    <filter
       inkscape:collect="always"
       style="color-interpolation-filters:sRGB"
       id="filter139208"
       x="-0.058980487"
       width="1.117961"
       y="-0.14588393"
       height="1.291768">
      <feGaussianBlur
         inkscape:collect="always"
         stdDeviation="0.9185142"
         id="feGaussianBlur139210" />
    </filter>
    <filter
       inkscape:collect="always"
       style="color-interpolation-filters:sRGB"
       id="filter139287"
       x="-0.19013458"
       width="1.3802692"
       y="-0.22004674"
       height="1.4400935">
      <feGaussianBlur
         inkscape:collect="always"
         stdDeviation="0.4011269"
         id="feGaussianBlur139289" />
    </filter>
    <filter
       inkscape:collect="always"
       style="color-interpolation-filters:sRGB"
       id="filter139312"
       x="-0.049548384"
       width="1.0990968"
       y="-0.046545453"
       height="1.0930909">
      <feGaussianBlur
         inkscape:collect="always"
         stdDeviation="1.9394928"
         id="feGaussianBlur139314" />
    </filter>
    <filter
       inkscape:collect="always"
       style="color-interpolation-filters:sRGB"
       id="filter139338"
       x="-0.061500002"
       width="1.123"
       y="-0.058571428"
       height="1.1171429">
      <feGaussianBlur
         inkscape:collect="always"
         stdDeviation="2.5885159"
         id="feGaussianBlur139340" />
    </filter>
  </defs>
  <sodipodi:namedview
     id="base"
     pagecolor="#ffffff"
     bordercolor="#666666"
     borderopacity="1.0"
     inkscape:pageopacity="0.0"
     inkscape:pageshadow="2"
     inkscape:zoom="1.4"
     inkscape:cx="290.6012"
     inkscape:cy="91.710992"
     inkscape:document-units="px"
     inkscape:current-layer="layer1"
     showgrid="false"
     inkscape:snap-global="false"
     fit-margin-top="0"
     fit-margin-left="0"
     fit-margin-right="0"
     fit-margin-bottom="0"
     inkscape:window-width="1920"
     inkscape:window-height="1016"
     inkscape:window-x="0"
     inkscape:window-y="0"
     inkscape:window-maximized="1" />
  <metadata
     id="metadata7">
    <rdf:RDF>
      <cc:Work
         rdf:about="">
        <dc:format>image/svg+xml</dc:format>
        <dc:type
           rdf:resource="http://purl.org/dc/dcmitype/StillImage" />
        <dc:title></dc:title>
      </cc:Work>
    </rdf:RDF>
  </metadata>
  <g
     inkscape:label="Layer 1"
     inkscape:groupmode="layer"
     id="layer1"
     transform="translate(820.22772,-550.7229)">
    <g
       id="g139407">
      <rect
         ry="7.1938238"
         rx="8.4091883"
         y="550.7229"
         x="-820.22772"
         height="225"
         width="400"
         id="rect139405"
         style="opacity:0.81199999;fill:#def5e7;fill-opacity:1;fill-rule:evenodd;stroke:none;stroke-width:2.20000005;stroke-linecap:round;stroke-linejoin:round;stroke-miterlimit:4;stroke-dasharray:none;stroke-dashoffset:0;stroke-opacity:0.95294118" />
      <g
         transform="matrix(0.52483468,0,0,0.50893508,-291.64893,325.46209)"
         id="g139364">
        <path
           style="fill:#ecbb9d;fill-opacity:1;fill-rule:evenodd;stroke:none;stroke-width:1px;stroke-linecap:butt;stroke-linejoin:miter;stroke-opacity:1"
           d="m -642.9621,480.61586 c 25.57927,8.47795 19.2471,1.94242 35.35534,23.23351 12.80503,9.06719 16.35602,26.54715 22.22336,41.92133 -0.67344,13.33971 -1.34687,28.13696 -2.02031,38.3858 -0.32802,7.10735 0.72008,14.62753 7.07107,23.73858 -4.27725,8.45443 -8.50624,16.76408 -12.12183,23.23351 -3.14518,6.68847 -10.34211,11.75623 -16.66752,17.1726 -16.56973,12.0484 -36.1742,19.37242 -54.54823,23.2335 -4.80853,1.36747 -9.63618,2.7732 -13.13199,1.51523 -10.59895,-0.13775 -13.50533,-3.35252 -17.67767,-6.06091 -8.47167,-10.59824 -8.77602,-13.628 -11.86929,-19.44544 l -7.82868,-20.70812 c -4.99067,-10.10267 -7.80808,-25.09712 -10.60661,-35.86042 1.05728,-9.71847 3.14998,-18.10832 5.55585,-26.5165 -0.0203,-9.93993 -1.84977,-20.48293 0,-29.79951 l 3.53553,-20.20304 c 3.62528,-12.71994 11.99241,-22.73023 20.20305,-32.82996 8.41794,-2.69374 15.82573,-3.70389 22.22336,-3.03046 l 10.85913,3.283 10.85915,-1.76777 c 0,0 6.56599,-2.52538 6.06091,3.53553 -0.50507,6.06092 2.52538,-3.03046 2.52538,-3.03046 z"
           id="path138256"
           inkscape:connector-curvature="0"
           sodipodi:nodetypes="ccccccccccccccccccccsc" />
        <path
           style="fill:#a9a6a6;fill-opacity:1;fill-rule:evenodd;stroke:none;stroke-width:1px;stroke-linecap:butt;stroke-linejoin:miter;stroke-opacity:1"
           d="m -715.58988,557.99355 c -0.71717,2.13674 0.008,3.01153 0.58988,4.01151 3.72071,3.87909 9.50407,4.38294 15,5.35714 6.413,0.53362 5.90104,-0.71985 7.5,-1.42857 -0.12654,-5.71073 -2.79178,-7.3746 -4.30738,-8.06821 -5.01423,-2.59511 -11.7959,-4.14767 -14.24424,-3.92671 -4.11598,0.59288 -3.95336,2.49508 -4.53826,4.05484 z"
           id="path138276"
           inkscape:connector-curvature="0"
           sodipodi:nodetypes="ccccccc" />
        <path
           style="fill:#41464c;fill-opacity:1;fill-rule:evenodd;stroke:none;stroke-width:1px;stroke-linecap:butt;stroke-linejoin:miter;stroke-opacity:1;filter:url(#filter139116)"
           d="m -717.78953,560.60527 c 1.3862,2.63738 1.48489,6.29769 4.68619,9.54011 2.83817,-1.12491 5.46067,-1.31522 7.79401,-0.25254 5.00624,-0.22314 5.27859,-1.39307 7.22765,-2.22765 -2.40914,-0.742 -3.20042,-1.90977 -8.51015,-1.88846 -4.463,-0.17579 -7.50093,-3.30996 -11.1977,-5.17146 z"
           id="path138270"
           inkscape:connector-curvature="0"
           sodipodi:nodetypes="cccccc" />
        <path
           style="opacity:0.83899997;fill:#2b201e;fill-opacity:1;fill-rule:evenodd;stroke:none;stroke-width:1px;stroke-linecap:butt;stroke-linejoin:miter;stroke-opacity:1;filter:url(#filter139020)"
           d="m -693.92857,563.43363 0,3.92857 c 1.36518,-1.39736 3.54677,-1.38457 3.21428,-5.71428 -0.51291,-3.6144 -5.23154,-8.33692 -7.85714,-10.35714 -3.39595,-3.37627 -11.57323,-4.74297 -15.67281,-4.347 -3.10051,0.83797 -5.30025,2.0963 -5.88017,4.11055 0.97948,7.933 1.62839,10.55096 2.28893,9.14521 2.75803,-5.87605 4.43126,-5.02637 6.40691,-6.05162 6.57197,0.22569 11.20075,3.29015 15.94702,5.1894 0.51766,1.36544 1.03532,1.06134 1.55298,4.09631 z"
           id="path138274"
           inkscape:connector-curvature="0"
           sodipodi:nodetypes="cccccccccc" />
        <path
           style="fill:#4c372b;fill-opacity:1;fill-rule:evenodd;stroke:none;stroke-width:1px;stroke-linecap:butt;stroke-linejoin:miter;stroke-opacity:1"
           d="m -663.67022,537.68948 c 2.18711,1.08836 13.23107,-2.61834 15.47616,-1.13007 2.22106,0.36507 2.92426,-1.42634 3.71674,-1.39531 4.13176,1.00746 11.0386,0.61652 20.20305,0 8.66515,-0.21702 14.22126,4.58862 20.20305,7.07107 -4.72119,-2.89782 -9.63375,-6.75248 -14.14214,-8.5863 -1.06518,-1.44692 -2.04815,-2.87329 -4.9641,-4.7829 -4.66127,-1.155 -8.14321,-2.57207 -14.73387,-3.29832 -9.69715,0.30614 -16.5781,1.68511 -21.27711,3.89531 -4.00665,3.41223 -3.87409,5.72068 -4.48178,8.22652 z"
           id="path138258"
           inkscape:connector-curvature="0"
           sodipodi:nodetypes="cccccccccc" />
        <path
           style="fill:#61433a;fill-opacity:1;fill-rule:evenodd;stroke:none;stroke-width:1px;stroke-linecap:butt;stroke-linejoin:miter;stroke-opacity:1"
           d="m -719.22861,535.66918 c 6.6705,-3.51048 12.53304,0.51057 15.69063,2.97181 6.42839,-1.92481 7.96771,0.20206 11.07841,2.07895 -3.54649,-3.7185 -6.6552,-6.8533 -12.12183,-13.13198 -2.52356,-1.4719 -5.94785,-3.02223 -12.24176,-2.91054 -1.69684,6.81824 -1.81098,7.2653 -2.58139,8.52503 z"
           id="path138260"
           inkscape:connector-curvature="0"
           sodipodi:nodetypes="ccccccc" />
        <path
           style="fill:url(#linearGradient138834);fill-opacity:1;fill-rule:evenodd;stroke:none;stroke-width:1px;stroke-linecap:butt;stroke-linejoin:miter;stroke-opacity:1"
           d="m -696.50018,635.67428 c -1.40389,0.45077 -2.97731,1.24058 -5.05076,3.03046 4.04061,4.20897 2.96814,6.11916 12.12183,12.6269 4.17863,1.12972 8.02881,2.64265 14.14213,1.51523 6.29504,-0.88695 8.20049,-2.5055 10.6066,-4.04061 -8.22886,-2.18349 -14.00245,-3.75315 -24.74873,-6.56599 4.04137,-0.21635 10.31883,-0.11326 16.66751,0 7.13015,-0.60292 11.08183,-1.60314 15.65737,-2.52538 -4.46847,-0.37318 -15.02106,-3.20525 -18.18275,-3.03046 -3.53527,-0.60928 -4.53861,-1.098 -14.64721,-2.0203 -2.18866,0.82702 -4.37733,0.81406 -6.56599,1.01015 z"
           id="path138264"
           inkscape:connector-curvature="0"
           sodipodi:nodetypes="ccccccccccc" />
        <path
           sodipodi:nodetypes="ccccccccccc"
           inkscape:connector-curvature="0"
           id="path138802"
           d="m -655.589,640.56698 c -1.53984,-0.74323 -1.74316,-0.74394 -6.06092,-3.03046 -3.43437,-3.95162 -4.11801,-6.3883 -14.14213,-13.13198 -3.36718,-1.61705 -6.73435,0.29615 -10.10153,0.50507 -5.54756,-3.55949 -5.69499,-2.3846 -8.5863,-2.0203 -6.30639,3.34236 -6.21359,7.66921 -8.58629,11.61675 2.18866,2.64891 4.37733,2.17705 6.56599,3.03046 2.96562,-0.43711 4.37839,-1.26243 6.06091,-2.02031 2.92989,1.19638 6.5524,3.14004 8.5863,2.52539 5.50988,-1.32389 6.10324,-0.18952 8.5863,0 7.06186,3.03638 12.41037,2.18927 17.67767,2.52538 z"
           style="opacity:0.87400004;fill:#7a3a29;fill-opacity:1;fill-rule:evenodd;stroke:none;stroke-width:1px;stroke-linecap:butt;stroke-linejoin:miter;stroke-opacity:1;filter:url(#filter138816)" />
        <path
           style="fill:url(#linearGradient138826);fill-opacity:1;fill-rule:evenodd;stroke:none;stroke-width:1px;stroke-linecap:butt;stroke-linejoin:miter;stroke-opacity:1"
           d="m -655.589,639.4052 c -1.53984,-0.74323 -1.74316,-0.74394 -6.06092,-3.03046 -3.43437,-3.95162 -4.11801,-6.3883 -14.14213,-13.13198 -3.36718,-1.61705 -6.73435,0.29615 -10.10153,0.50507 -5.54756,-3.55949 -5.69499,-2.3846 -8.5863,-2.0203 -6.30639,3.34236 -6.21359,7.66921 -8.58629,11.61675 2.18866,2.64891 4.37733,2.17705 6.56599,3.03046 2.96562,-0.43711 4.37839,-1.26243 6.06091,-2.02031 2.92989,1.19638 6.5524,3.14004 8.5863,2.52539 5.50988,-1.32389 6.10324,-0.18952 8.5863,0 7.06186,3.03638 12.41037,2.18927 17.67767,2.52538 z"
           id="path138262"
           inkscape:connector-curvature="0"
           sodipodi:nodetypes="ccccccccccc" />
        <path
           style="fill:#dc9c8a;fill-opacity:1;fill-rule:evenodd;stroke:none;stroke-width:1px;stroke-linecap:butt;stroke-linejoin:miter;stroke-opacity:1;filter:url(#filter138864)"
           d="m -657.10423,639.71489 c -1.77446,3.98848 -3.80785,7.58858 -7.57615,8.5863 -8.08122,-1.33918 -16.16244,-3.54326 -24.24366,-6.566 6.34884,0.60837 12.33708,0.73595 17.67767,0 5.66211,-0.29421 10.15757,-1.05507 14.14214,-2.0203 z"
           id="path138266"
           inkscape:connector-curvature="0"
           sodipodi:nodetypes="ccccc" />
        <path
           style="opacity:0.84899998;fill:#4d6a68;fill-opacity:1;fill-rule:evenodd;stroke:none;stroke-width:1px;stroke-linecap:butt;stroke-linejoin:miter;stroke-opacity:1;filter:url(#filter139208)"
           d="m -650.79078,570.01436 c 5.3173,0.62205 10.20645,1.95766 16.16244,1.51523 5.67927,0.83771 11.54226,-0.46619 14.64722,-4.54569 1.36371,-2.81807 2.23662,-5.40961 6.56599,-9.59645 -2.12082,-0.0426 -2.03922,-2.14988 -7.57615,1.01016 -0.87345,4.81313 -4.68477,5.4293 -7.07106,8.08122 -4.69395,0.33672 -7.95623,0.67343 -16.60887,0.028 -1.19341,0.20625 -3.26245,3.00897 -6.11957,3.50752 z"
           id="path138268"
           inkscape:connector-curvature="0"
           sodipodi:nodetypes="cccccccc" />
        <path
           style="opacity:0.87900002;fill:#635547;fill-opacity:1;fill-rule:evenodd;stroke:none;stroke-width:1px;stroke-linecap:butt;stroke-linejoin:miter;stroke-opacity:1;filter:url(#filter139156)"
           d="m -613.21429,553.43363 c -0.36423,3.93675 -4.60593,4.68027 -8.92857,5.35715 -8.80334,-6.89232 -17.55414,-7.21517 -23.21428,-3.92858 -3.42676,3.33009 -8.84075,10.20882 -9.28572,8.21429 0.77339,-4.55364 2.83828,-8.89203 9.28572,-12.5 6.85099,-2.34254 10.72697,-3.46077 17.32143,-1.51786 4.90185,1.65144 9.70096,3.8166 14.82142,4.375 z"
           id="path138272"
           inkscape:connector-curvature="0"
           sodipodi:nodetypes="ccccccc" />
        <path
           style="fill:#cbc2bc;fill-opacity:1;fill-rule:evenodd;stroke:none;stroke-width:1px;stroke-linecap:butt;stroke-linejoin:miter;stroke-opacity:1"
           d="m -651.42857,560.93363 c -0.45203,1.52345 -0.61875,2.7616 -0.35715,3.57143 6.70547,2.2524 9.8434,1.73005 14.64286,2.5 4.35152,0.43469 6.89246,-0.0359 9.91071,-0.26786 6.40715,-4.13231 4.94589,-5.36703 4.91072,-7.23214 l -2.32143,-1.78571 c -5.23833,-4.01919 -14.53367,-5.08417 -19.28571,-2.85715 -5.26782,2.20833 -5.4664,4.07871 -7.5,6.07143 z"
           id="path138278"
           inkscape:connector-curvature="0"
           sodipodi:nodetypes="cccccccc" />
        <path
           inkscape:connector-curvature="0"
           style="opacity:0.68900003;fill:#58c891;fill-opacity:1;fill-rule:evenodd;stroke:none;stroke-width:2.20000005;stroke-linecap:round;stroke-linejoin:round;stroke-miterlimit:4;stroke-dasharray:none;stroke-dashoffset:0;stroke-opacity:0.95294118"
           d="m -638.4043,553.72852 c -1.46339,0.0439 -2.82978,0.24703 -4.03125,0.59375 a 9.375,9.1964283 0 0 0 -0.95703,4.02148 9.375,9.1964283 0 0 0 6.25781,8.66211 c 2.45364,0.24459 4.31646,0.19416 6.0293,0.0684 a 9.375,9.1964283 0 0 0 6.46289,-8.73047 9.375,9.1964283 0 0 0 -0.0234,-0.64063 c -3.6018,-2.75185 -9.10594,-4.11354 -13.73828,-3.9746 z"
           id="path138280" />
        <path
           style="opacity:0.81199999;fill:#285740;fill-opacity:1;fill-rule:evenodd;stroke:none;stroke-width:2.20000005;stroke-linecap:round;stroke-linejoin:round;stroke-miterlimit:4;stroke-dasharray:none;stroke-dashoffset:0;stroke-opacity:0.95294118"
           d="m -635.31222,554.42118 a 3.7976693,4.0411392 84.402662 0 0 -1.12439,3.00075 3.7976693,4.0411392 84.402662 0 0 4.39293,3.38651 3.7976693,4.0411392 84.402662 0 0 3.65189,-4.17494 3.7976693,4.0411392 84.402662 0 0 -0.14155,-0.69438 c -2.36311,-0.88344 -4.63725,-1.37171 -6.77896,-1.51794 z"
           id="ellipse138286"
           inkscape:connector-curvature="0" />
        <path
           style="opacity:0.28405319;fill:#69f0ae;fill-opacity:1;fill-rule:evenodd;stroke:none;stroke-width:2.20000005;stroke-linecap:round;stroke-linejoin:round;stroke-miterlimit:4;stroke-dasharray:none;stroke-dashoffset:0;stroke-opacity:0.95294118"
           d="m -752.50084,531.39007 a 7.6505623,7.3240561 0 0 0 -0.45703,0.0156 c 2.68519,2.2577 6.59907,6.4275 7.06446,9.70703 0.0359,0.46784 0.0381,0.8763 0.0195,1.25 a 7.6505623,7.3240561 0 0 0 1.02343,-3.64844 7.6505623,7.3240561 0 0 0 -7.65039,-7.32422 z"
           id="path138991"
           inkscape:connector-curvature="0" />
        <path
           inkscape:connector-curvature="0"
           style="opacity:0.49300005;fill:#06eb7b;fill-opacity:1;fill-rule:evenodd;stroke:none;stroke-width:2.20000005;stroke-linecap:round;stroke-linejoin:round;stroke-miterlimit:4;stroke-dasharray:none;stroke-dashoffset:0;stroke-opacity:0.95294118"
           d="m -703.99023,555.66602 a 7.6505623,7.3240561 0 0 0 -0.98243,3.58398 7.6505623,7.3240561 0 0 0 7.65039,7.32422 7.6505623,7.3240561 0 0 0 3.39454,-0.76367 l 0,-2.37696 c -0.51766,-3.03497 -1.03703,-2.73026 -1.55469,-4.0957 -2.73959,-1.09626 -5.45023,-2.56918 -8.50781,-3.67187 z"
           id="ellipse138282" />
        <path
           style="opacity:0.58300003;fill:#080808;fill-opacity:1;fill-rule:evenodd;stroke:none;stroke-width:2.20000005;stroke-linecap:round;stroke-linejoin:round;stroke-miterlimit:4;stroke-dasharray:none;stroke-dashoffset:0;stroke-opacity:0.95294118"
           d="m -700.6839,556.90012 c -0.23025,0.45956 -0.34955,0.95688 -0.3502,1.45991 -0.0903,1.63186 0.47419,4.13765 3.15941,4.31631 2.73551,-0.0903 2.9308,-1.07122 3.68308,-1.70802 -0.27826,-0.47914 -0.55859,-0.80783 -0.83684,-1.54178 -1.86801,-0.7475 -3.72603,-1.64895 -5.65545,-2.52642 z"
           id="ellipse138284"
           inkscape:connector-curvature="0"
           sodipodi:nodetypes="cccccc" />
        <ellipse
           style="opacity:0.50800003;fill:#e6e6e6;fill-opacity:1;fill-rule:evenodd;stroke:none;stroke-width:2.20000005;stroke-linecap:round;stroke-linejoin:round;stroke-miterlimit:4;stroke-dasharray:none;stroke-dashoffset:0;stroke-opacity:0.95294118;filter:url(#filter139287)"
           id="ellipse138288"
           cx="-639.41962"
           cy="557.30231"
           rx="2.5316398"
           ry="2.1875002" />
        <ellipse
           ry="1.7410717"
           rx="1.5941398"
           cy="559.10339"
           cx="-702.76782"
           id="ellipse138290"
           style="opacity:0.65799997;fill:#dedede;fill-opacity:1;fill-rule:evenodd;stroke:none;stroke-width:2.20000005;stroke-linecap:round;stroke-linejoin:round;stroke-miterlimit:4;stroke-dasharray:none;stroke-dashoffset:0;stroke-opacity:0.95294118;filter:url(#filter139088)" />
        <path
           style="opacity:0.728;fill:#a67a5b;fill-opacity:1;fill-rule:evenodd;stroke:none;stroke-width:1px;stroke-linecap:butt;stroke-linejoin:miter;stroke-opacity:1;filter:url(#filter138586)"
           d="m -692.45957,543.24532 c 2.70344,6.93846 11.54859,16.54373 4.29315,33.33504 l -5.05076,11.61675 c -1.58299,2.77224 -7.59876,4.80325 -9.84899,12.62691 -2.79235,0.24146 -3.99809,4.27717 -5.55584,-15.40483 5.45111,-0.15755 10.45845,-3.71731 14.89975,-11.61675 1.74666,-3.65776 4.55173,-4.56363 4.79822,-12.12183 -0.39095,-4.08982 -0.24174,-7.51553 -10.6066,-17.93021 l -3.78807,-4.04061 c 4.08855,3.21014 7.77969,4.69814 10.85914,3.53553 z"
           id="path138292"
           inkscape:connector-curvature="0"
           sodipodi:nodetypes="cccccccccc" />
        <path
           style="opacity:0.82399998;fill:#a86e48;fill-opacity:1;fill-rule:evenodd;stroke:none;stroke-width:1px;stroke-linecap:butt;stroke-linejoin:miter;stroke-opacity:1;filter:url(#filter138798)"
           d="m -694.60615,592.11145 c -0.95782,5.14137 -3.28718,10.40201 3.15673,14.89975 2.7605,2.41546 5.30374,4.28741 8.08122,5.68211 0.85628,2.15623 0.318,3.38275 0.25254,4.92449 -1.62681,-1.74305 -2.36853,-3.26483 -2.65165,-4.67195 -2.78492,-0.36632 -5.26152,-2.55856 -8.08122,-4.54569 -2.12529,-0.52731 -4.33154,-0.64983 -5.80838,-4.41942 0.0422,-1.06067 0.19827,-2.14414 1.89404,-3.53553 l -0.75762,-2.90419 c 0.18536,-3.20913 2.5352,-3.71266 3.91434,-5.42957 z"
           id="path138294"
           inkscape:connector-curvature="0"
           sodipodi:nodetypes="cccccccccc" />
        <path
           style="opacity:0.83399999;fill:#d9a07a;fill-opacity:1;fill-rule:evenodd;stroke:none;stroke-width:1px;stroke-linecap:butt;stroke-linejoin:miter;stroke-opacity:1;filter:url(#filter138642)"
           d="m -690.94434,587.69203 c 0.75761,2.92519 1.51523,6.72376 2.27284,5.80838 2.41331,2.11862 4.71063,2.46185 6.43972,1.89404 -1.42086,1.16931 -0.42819,3.82947 -4.92449,3.15672 -2.36889,-0.75514 -3.79585,-0.92827 -5.55584,-1.38896 -0.60261,-2.81619 0.0134,-5.98057 1.76777,-9.47018 z"
           id="path138296"
           inkscape:connector-curvature="0"
           sodipodi:nodetypes="cccccc" />
        <path
           style="opacity:0.80400002;fill:#5c3c2c;fill-opacity:1;fill-rule:evenodd;stroke:none;stroke-width:1px;stroke-linecap:butt;stroke-linejoin:miter;stroke-opacity:1;filter:url(#filter138758)"
           d="m -670.10995,609.03151 c -1.76774,-0.92597 -2.04172,-1.85195 -2.90418,-2.77792 0.12224,0.20081 -0.90068,0.5755 -6.43973,0.12627 l -2.39911,-0.25254 c -0.13691,0.88388 0.56157,1.76777 -1.76777,2.65165 1.08321,0.60474 1.73556,0.99405 2.14658,1.26269 0.38635,-2.47255 1.19211,-2.00927 1.89403,-2.27285 0.99806,0.24045 1.42155,-0.0937 3.03046,0.75762 1.7071,-0.39448 2.43647,-0.13714 3.15673,0.12627 l 3.53553,1.01015 z"
           id="path138298"
           inkscape:connector-curvature="0"
           sodipodi:nodetypes="ccccccccccc" />
        <path
           style="opacity:0.85;fill:#d29c81;fill-opacity:1;fill-rule:evenodd;stroke:none;stroke-width:1px;stroke-linecap:butt;stroke-linejoin:miter;stroke-opacity:1;filter:url(#filter138682)"
           d="m -667.96337,597.16221 c 1.06666,6.52769 10.70083,10.14013 -2.77792,15.15229 -1.96951,-0.75761 -3.66431,-1.51523 -2.65165,-2.27284 5.54539,0.85162 8.03828,-2.17569 7.57614,-6.43972 -0.73842,-0.74213 -1.8716,-2.66854 -3.28299,-5.42957 z"
           id="path138300"
           inkscape:connector-curvature="0"
           sodipodi:nodetypes="cccccc" />
        <path
           style="opacity:0.844;fill:#d7b9ae;fill-opacity:1;fill-rule:evenodd;stroke:none;stroke-width:1px;stroke-linecap:butt;stroke-linejoin:miter;stroke-opacity:1;filter:url(#filter139180)"
           d="m -654.07377,558.90269 -2.77792,0.3788 c -0.56572,-6.44605 3.8584,-9.77346 6.81853,-14.01586 3.34583,-2.53702 9.83681,-3.35851 15.65736,-4.54569 16.7927,2.23567 19.79715,5.87788 25.00128,8.33376 0.52173,2.2337 1.36768,4.67372 -0.63135,5.3033 -2.43337,-0.11692 -4.59538,-1.0323 -6.81853,-1.76777 -3.68395,-0.96167 -8.32748,-3.21599 -16.92005,-5.05076 -3.55261,0.15112 -6.77164,1.303 -10.10787,2.10325 l -5.47553,3.35695 z"
           id="path138302"
           inkscape:connector-curvature="0"
           sodipodi:nodetypes="ccccccccccc" />
        <path
           style="opacity:0.72600002;fill:#c19b88;fill-opacity:1;fill-rule:evenodd;stroke:none;stroke-width:1px;stroke-linecap:butt;stroke-linejoin:miter;stroke-opacity:1;filter:url(#filter138982)"
           d="m -716.57696,542.1089 c -4.45822,2.06239 -2.2372,5.39577 -2.27285,6.18718 3.283,-2.05251 6.56599,-2.03797 9.84899,-1.76776 l 8.5863,3.03045 c 2.43882,1.55851 4.62872,4.15693 6.75539,5.87152 1.33595,1.2198 1.576,0.2478 1.57837,-1.19956 -1.65851,-2.87046 -4.75022,-5.26318 -7.32361,-7.82868 -2.45189,-2.68804 -6.08709,-4.5759 -9.59645,-5.3033 -3.27278,-0.71869 -5.40929,0.55108 -8.08122,0.88388 z"
           id="path138304"
           inkscape:connector-curvature="0"
           sodipodi:nodetypes="cccccccccc" />
        <path
           style="opacity:0.769;fill:#bfc3b6;fill-opacity:1;fill-rule:evenodd;stroke:none;stroke-width:1px;stroke-linecap:butt;stroke-linejoin:miter;stroke-opacity:1;filter:url(#filter138410)"
           d="m -609.46429,559.14792 c -4.96188,-0.24555 -5.85519,4.1587 -7.67857,7.5 -0.73379,5.29455 -0.97817,6.18445 -1.25,7.32143 3.78062,8.57822 -4.74194,17.87763 16.42857,1.42857 3.52148,-4.74419 -1.64968,-8.78684 0.35715,-11.96429 -2.61905,-7.74991 -5.2381,-3.83786 -7.85715,-4.28571 z"
           id="path138306"
           inkscape:connector-curvature="0"
           sodipodi:nodetypes="cccccc" />
        <path
           style="opacity:0.83600003;fill:#d09878;fill-opacity:1;fill-rule:evenodd;stroke:none;stroke-width:1px;stroke-linecap:butt;stroke-linejoin:miter;stroke-opacity:1;filter:url(#filter138522)"
           d="m -690.71429,612.3622 c -1.57019,2.90603 1.97445,1.08203 -6.38896,8.92858 -5.51712,3.97693 -5.78791,7.20439 -6.78571,10.53571 -0.27683,5.08964 2.57467,10.83155 10.31753,18.92857 -0.39368,2.2233 -0.79826,4.40847 -0.53571,8.92857 l 1.96428,7.67857 c -4.22694,-7.61656 -9.46491,-11.86298 -12.67857,-22.85714 -6.07023,-15.13521 -12.011,-25.61019 -18.39286,-51.96428 0.8974,-6.47983 -2.59849,-9.44502 4.28572,-20.71429 l 5.53571,13.21429 c 2.44048,2.35668 4.88095,0.17259 7.32143,-0.17858 1.56119,2.12092 2.71157,0.85259 5.53571,13.39286 0.38742,3.37396 -1.88456,6.50616 1.78572,10.17857 2.39663,4.69276 5.3405,2.81872 8.03571,3.92857 z"
           id="path138308"
           inkscape:connector-curvature="0"
           sodipodi:nodetypes="cccccccccccccc" />
        <path
           style="fill:#51332b;fill-opacity:1;fill-rule:evenodd;stroke:none;stroke-width:1px;stroke-linecap:butt;stroke-linejoin:miter;stroke-opacity:1"
           d="m -649.27555,479.35317 c 11.76909,3.62694 21.74869,8.10876 30.15664,9.71901 l 11.00708,13.00943 c 8.31785,9.56916 11.38241,17.73676 15.74402,24.00906 l 6.52266,24.09574 -1.72444,35.58992 c -1.39058,8.41794 2.09736,17.19302 7.36694,25.61096 -2.25902,12.20723 -4.55061,28.53848 -4.98949,29.82489 -4.3919,16.12287 -5.96151,29.01405 -4.29315,34.36312 2.76893,17.43885 9.49135,25.15013 15.50943,31.54189 6.94002,15.89389 18.43907,23.69544 32.78663,28.81473 3.92286,5.21327 9.00198,7.72861 11.11168,17.17259 0.12798,15.4247 0.22774,31.21624 1.01015,38.13326 10.31632,-3.06041 12.72396,22.87765 17.42514,40.4061 1.77429,18.07083 10.64963,38.67776 -5.05077,50.50763 l 39.14341,-0.75761 c 9.21036,-26.66889 24.79929,-6.95468 8.33376,-30.80966 -2.36867,-1.12101 -1.41952,-4.23272 -0.50507,-7.3236 17.7703,22.68131 11.95073,-3.06144 13.63706,-14.39468 1.49466,-9.67311 18.32735,-14.1141 14.64721,-23.2335 1.44186,-6.22387 -3.15006,-15.46463 -8.33376,-25.00128 1.57517,-11.36422 -1.23135,-22.72843 -2.77792,-34.09265 -17.7671,-5.69117 -22.73915,-12.09317 -28.78935,-18.43528 -8.36385,-17.70458 -1.72576,-19.52476 0.50508,-26.01143 7.89522,-5.08973 6.29558,-13.02791 8.08122,-19.95051 19.20579,-41.457 -10.37686,-43.73924 -10.6066,-48.23479 -12.31629,-14.05973 -15.51579,-34.5933 -19.69798,-49.49747 -4.37766,-20.155 -3.70455,-39.58846 -3.53553,-59.09393 l -2.02031,-8.08122 -5.55584,6.31346 c -0.63375,-6.05357 0.71419,-17.58726 2.02031,-28.78935 -4.08563,-2.76492 -25.76127,-46.36468 -36.11295,-47.72971 -45.31674,-6.59161 -109.76991,-2.02031 -164.65487,-3.03046 -9.57179,3.89307 -12.07624,11.83458 -21.2132,25.00128 -1.97113,0.78845 -6.84514,41.03392 -4.54569,40.4061 5.89478,-1.60945 -2.85262,23.00587 -3.53553,23.23351 -15.59355,19.83191 -30.24285,7.88378 -44.44672,6.06091 8.24683,7.44583 15.6637,15.48449 37.62819,13.13199 -16.50159,9.35257 -11.86187,16.59102 -16.41498,24.74874 3.86309,41.21903 25.12202,37.97661 21.46574,63.38707 -0.63999,12.29956 -9.09389,21.18054 -20.45559,28.78935 -7.00742,22.58808 2.69374,22.39171 4.04061,33.58757 -8.11673,-34.33436 8.19935,-32.95571 12.62691,-38.63834 11.56975,-3.34957 12.08488,-14.43738 17.67767,-21.97082 2.5827,9.19856 0.92792,21.0048 -13.8896,40.91118 -4.9537,26.56648 15.48901,24.74874 23.23351,37.12311 20.34142,32.729 9.26236,42.1204 5.3033,46.71955 -16.00446,15.22361 -30.21058,10.53928 -43.18402,9.34392 8.5835,1.49139 9.17523,5.45284 37.62818,2.0203 4.09941,4.21363 5.88241,16.53469 7.32361,30.05204 6.3144,-33.20975 17.74201,-20.72229 22.72843,-40.65864 -1.82711,-25.62302 6.86181,-28.44097 -8.5863,-54.54824 6.37448,7.40673 12.85875,15.41726 17.93021,15.65737 -8.08951,-20.8089 -4.19927,-17.65828 -5.05076,-23.99113 6.3797,11.78365 12.99498,20.26913 20.70812,13.38452 -1.59348,-21.73487 -1.786,-33.95088 -4.0406,-44.44671 -13.16349,3.10987 -23.24606,-3.55916 -28.03174,-8.83883 -11.50418,-22.86916 -18.05598,-47.91093 -27.00364,-73.97573 -0.84298,-4.58772 3.0185,-17.0162 4.52775,-25.5243 -0.8735,-18.61323 2.77205,-38.67811 10.62454,-65.3461 l 13.87166,-18.49656 c 14.25542,-4.63259 16.93854,-3.61086 22.91969,-3.78807 4.69071,2.0967 12.64948,4.92562 13.69834,5.80837 4.47383,0.43322 6.22621,-1.85501 8.08122,-4.04061 z"
           id="path139294"
           inkscape:connector-curvature="0"
           sodipodi:nodetypes="ccccccccccccccccccccccccccccccccccscccccccccccccccccccccccccccccc" />
        <path
           style="fill:#a46f50;fill-opacity:1;fill-rule:evenodd;stroke:none;stroke-width:1px;stroke-linecap:butt;stroke-linejoin:miter;stroke-opacity:1;filter:url(#filter139312)"
           d="m -582.60548,610.92554 -12.12183,27.02158 -22.22336,16.66752 -38.63833,16.41498 -16.92006,4.04061 5.55584,35.35534 42.67895,-46.9721 22.98097,-14.39467 14.64721,-17.93021 0.50507,11.36422 7.57615,-12.62691 -2.27284,-19.44543 z"
           id="path138314"
           inkscape:connector-curvature="0" />
        <path
           style="opacity:0.79100001;fill:#dea480;fill-opacity:1;fill-rule:evenodd;stroke:none;stroke-width:1px;stroke-linecap:butt;stroke-linejoin:miter;stroke-opacity:1;filter:url(#filter138486)"
           d="m -598.03572,581.29078 c -11.51925,8.50072 -23.67387,16.90112 -26.42857,26.78571 0.23062,2.82965 -1.1034,5.86338 9.64286,7.32143 9.17565,-0.23211 22.53565,-4.10322 24.28571,-12.5 -0.93261,0.98577 0.42271,-9.08676 2.32143,-21.78572 -2.24971,-1.25717 -4.33505,-2.72568 -9.82143,0.17858 z"
           id="path138310"
           inkscape:connector-curvature="0"
           sodipodi:nodetypes="cccccc" />
        <path
           style="opacity:0.86499999;fill:#e4ad8f;fill-opacity:1;fill-rule:evenodd;stroke:none;stroke-width:1px;stroke-linecap:butt;stroke-linejoin:miter;stroke-opacity:1;filter:url(#filter138342)"
           d="m -634.28572,503.6122 c -14.16102,4.72376 -31.4973,4.86104 -40.17857,17.5 -1.51384,7.96361 -5.56831,13.61756 -0.17857,27.85715 -1.98177,5.27945 -5.19243,7.6096 -10.53571,4.82143 -8.6713,-12.21247 -4.79149,-31.0308 -26.07143,-36.60715 -3.51166,-2.99598 2.13302,-17.95122 16.78571,-31.25 16.81685,-4.54536 20.46365,0.027 29.46429,0.89286 9.79016,2.68626 19.61752,3.16835 29.46428,2.5 11.47575,4.7619 9.22616,9.52381 1.25,14.28571 z"
           id="path138312"
           inkscape:connector-curvature="0"
           sodipodi:nodetypes="ccccccccc" />
        <path
           inkscape:connector-curvature="0"
           id="path139316"
           d="m -582.60548,610.92554 -12.12183,27.02158 -22.22336,16.66752 -38.63833,16.41498 -16.92006,4.04061 5.55584,35.35534 42.67895,-46.9721 22.98097,-14.39467 14.64721,-17.93021 0.50507,11.36422 7.57615,-12.62691 -2.27284,-19.44543 z"
           style="fill:#a46f50;fill-opacity:1;fill-rule:evenodd;stroke:none;stroke-width:1px;stroke-linecap:butt;stroke-linejoin:miter;stroke-opacity:1;filter:url(#filter139312)" />
        <path
           style="fill:#e1aa89;fill-opacity:1;fill-rule:evenodd;stroke:none;stroke-width:1px;stroke-linecap:butt;stroke-linejoin:miter;stroke-opacity:1;filter:url(#filter139338)"
           d="m -667.4583,710.93064 -6.81852,20.70813 12.87944,-3.03046 8.5863,9.09138 20.96066,-14.64722 40.91118,-13.88959 17.67767,-4.79823 -15.40483,-29.54696 2.02031,-28.53681 3.28299,-8.33376 -3.78807,-6.31345 -15.15229,18.18274 -21.71828,14.14214 z"
           id="path138316"
           inkscape:connector-curvature="0" />
        <path
           sodipodi:nodetypes="ccccc"
           inkscape:connector-curvature="0"
           id="path138868"
           d="m -657.01494,639.71489 c -1.32803,3.80991 -3.98642,7.85644 -7.75472,8.85416 -7.57614,-1.71799 -19.24969,-4.39465 -24.90116,-6.43973 4.82912,-0.36934 14.60172,0.25253 18.51374,-0.39413 3.42997,-0.47278 7.21114,-0.51936 14.14214,-2.0203 z"
           style="opacity:0.80730896;fill:#dc9c8a;fill-opacity:1;fill-rule:evenodd;stroke:none;stroke-width:1px;stroke-linecap:butt;stroke-linejoin:miter;stroke-opacity:1;filter:url(#filter138918)" />
        <path
           style="opacity:0.71262458;fill:#dc9c8a;fill-opacity:1;fill-rule:evenodd;stroke:none;stroke-width:1px;stroke-linecap:butt;stroke-linejoin:miter;stroke-opacity:1;filter:url(#filter138944)"
           d="m -659.66659,639.71489 c -1.32803,3.80991 -3.98642,7.85644 -7.75472,8.85416 -7.57614,-1.71799 -19.24969,-4.39465 -24.90116,-6.43973 4.82912,-0.36934 14.60172,0.25253 18.51374,-0.39413 3.42997,-0.47278 7.21114,-0.51936 14.14214,-2.0203 z"
           id="path138922"
           inkscape:connector-curvature="0"
           sodipodi:nodetypes="ccccc" />
        <path
           sodipodi:nodetypes="ccccc"
           inkscape:connector-curvature="0"
           id="path138948"
           d="m -662.31824,639.20981 c -1.32803,3.80991 -3.98642,7.85644 -7.75472,8.85416 -7.57614,-1.71799 -19.24969,-4.39465 -24.90116,-6.43973 4.82912,-0.36934 14.60172,0.25253 18.51374,-0.39413 3.42997,-0.47278 7.21114,-0.51936 14.14214,-2.0203 z"
           style="opacity:0.71262458;fill:url(#linearGradient138956);fill-opacity:1;fill-rule:evenodd;stroke:none;stroke-width:1px;stroke-linecap:butt;stroke-linejoin:miter;stroke-opacity:1;filter:url(#filter138944)" />
        <path
           inkscape:connector-curvature="0"
           id="path139342"
           d="m -668.17259,713.78778 -6.81852,20.70813 12.87944,-3.03046 8.5863,9.09138 20.96066,-14.64722 40.91118,-13.88959 17.67767,-4.79823 -15.40483,-29.54696 2.02031,-28.53681 3.28299,-8.33376 -3.78807,-6.31345 -15.15229,18.18274 -21.71828,14.14214 z"
           style="fill:#e1aa89;fill-opacity:1;fill-rule:evenodd;stroke:none;stroke-width:1px;stroke-linecap:butt;stroke-linejoin:miter;stroke-opacity:1" />
      </g>
    </g>
  </g>
</svg>
