<svg id="svg2" xmlns:rdf="http://www.w3.org/1999/02/22-rdf-syntax-ns#" xmlns="http://www.w3.org/2000/svg" height="63.5mm" width="112.89mm" version="1.1" xmlns:cc="http://creativecommons.org/ns#" xmlns:xlink="http://www.w3.org/1999/xlink" viewBox="0 0 399.99999 225" xmlns:dc="http://purl.org/dc/elements/1.1/">
 <defs id="defs4">
  <filter id="z" style="color-interpolation-filters:sRGB" height="1.1841" width="1.1545" y="-.092055" x="-.077241">
   <feGaussianBlur id="feGaussianBlur138344" stdDeviation="2.7243473"/>
  </filter>
  <filter id="y" style="color-interpolation-filters:sRGB" height="1.323" width="1.4733" y="-.16152" x="-.23665">
   <feGaussianBlur id="feGaussianBlur138412" stdDeviation="1.7445433"/>
  </filter>
  <filter id="x" style="color-interpolation-filters:sRGB" height="1.4106" width="1.4054" y="-.20530" x="-.20271">
   <feGaussianBlur id="feGaussianBlur138488" stdDeviation="3.0618085"/>
  </filter>
  <filter id="w" style="color-interpolation-filters:sRGB" height="1.1288" width="1.3772" y="-.064386" x="-.18861">
   <feGaussianBlur id="feGaussianBlur138524" stdDeviation="2.5629656"/>
  </filter>
  <filter id="v" style="color-interpolation-filters:sRGB" height="1.1983" width="1.5256" y="-.099171" x="-.26279">
   <feGaussianBlur id="feGaussianBlur138588" stdDeviation="2.5459514"/>
  </filter>
  <filter id="u" style="color-interpolation-filters:sRGB" height="1.3083" width="1.3158" y="-.15414" x="-.15791">
   <feGaussianBlur id="feGaussianBlur138644" stdDeviation="0.70432819"/>
  </filter>
  <filter id="t" style="color-interpolation-filters:sRGB" height="1.1797" width="1.2706" y="-.089860" x="-.13532">
   <feGaussianBlur id="feGaussianBlur138684" stdDeviation="0.56732471"/>
  </filter>
  <filter id="s" style="color-interpolation-filters:sRGB" height="1.8671" width="1.2466" y="-.43355" x="-.12330">
   <feGaussianBlur id="feGaussianBlur138760" stdDeviation="0.7071068"/>
  </filter>
  <filter id="r" style="color-interpolation-filters:sRGB" height="1.1591" width="1.242" y="-.079556" x="-.12101">
   <feGaussianBlur id="feGaussianBlur138800" stdDeviation="0.8454915"/>
  </filter>
  <filter id="q" style="color-interpolation-filters:sRGB" height="1.1735" width="1.0664" y="-.086756" x="-.033178">
   <feGaussianBlur id="feGaussianBlur138818" stdDeviation="0.65634172"/>
  </filter>
  <linearGradient id="e" y2="636.91" gradientUnits="userSpaceOnUse" x2="-683.79" y1="619.82" x1="-685.22">
   <stop id="stop138822" stop-color="#c63d2c" offset="0"/>
   <stop id="stop138824" stop-color="#b5573d" stop-opacity=".96107" offset="1"/>
  </linearGradient>
  <linearGradient id="d" y2="653.24" gradientUnits="userSpaceOnUse" x2="-682.94" y1="637.34" x1="-685.9">
   <stop id="stop138830" stop-color="#aa4938" offset="0"/>
   <stop id="stop138832" stop-color="#c37155" offset="1"/>
  </linearGradient>
  <filter id="p" style="color-interpolation-filters:sRGB" height="1.2824" width="1.0762" y="-.14118" x="-.038095">
   <feGaussianBlur id="feGaussianBlur138866" stdDeviation="0.50507642"/>
  </filter>
  <filter id="o" style="color-interpolation-filters:sRGB" height="1.3376" width="1.0915" y="-.16878" x="-.045761">
   <feGaussianBlur id="feGaussianBlur138920" stdDeviation="0.6226506"/>
  </filter>
  <filter id="b" style="color-interpolation-filters:sRGB" height="1.6188" width="1.1678" y="-.30942" x="-.083895">
   <feGaussianBlur id="feGaussianBlur138946" stdDeviation="1.1415261"/>
  </filter>
  <linearGradient id="c" y2="640.45" gradientUnits="userSpaceOnUse" x2="-695.08" y1="645.44" x1="-660.07">
   <stop id="stop138952" stop-color="#dc9c8a" offset="0"/>
   <stop id="stop138954" stop-color="#dc9c8a" stop-opacity="0" offset="1"/>
  </linearGradient>
  <filter id="n" style="color-interpolation-filters:sRGB" height="1.2358" width="1.1305" y="-.11790" x="-.065242">
   <feGaussianBlur id="feGaussianBlur138984" stdDeviation="0.74188662"/>
  </filter>
  <filter id="m" style="color-interpolation-filters:sRGB" height="1.2047" width="1.1424" y="-.10237" x="-.071220">
   <feGaussianBlur id="feGaussianBlur139022" stdDeviation="0.87375609"/>
  </filter>
  <filter id="l" style="color-interpolation-filters:sRGB" height="1.3448" width="1.3766" y="-.17240" x="-.18830">
   <feGaussianBlur id="feGaussianBlur139090" stdDeviation="0.25014086"/>
  </filter>
  <filter id="k" style="color-interpolation-filters:sRGB" height="1.2207" width="1.1069" y="-.11037" x="-.053427">
   <feGaussianBlur id="feGaussianBlur139118" stdDeviation="0.4387194"/>
  </filter>
  <filter id="j" style="color-interpolation-filters:sRGB" height="1.2661" width="1.0987" y="-.13305" x="-.049354">
   <feGaussianBlur id="feGaussianBlur139158" stdDeviation="0.8519525"/>
  </filter>
  <filter id="i" style="color-interpolation-filters:sRGB" height="1.2157" width="1.0831" y="-.10783" x="-.041563">
   <feGaussianBlur id="feGaussianBlur139182" stdDeviation="0.83399203"/>
  </filter>
  <filter id="h" style="color-interpolation-filters:sRGB" height="1.2918" width="1.118" y="-.14588" x="-.058980">
   <feGaussianBlur id="feGaussianBlur139210" stdDeviation="0.9185142"/>
  </filter>
  <filter id="g" style="color-interpolation-filters:sRGB" height="1.4401" width="1.3803" y="-.22005" x="-.19013">
   <feGaussianBlur id="feGaussianBlur139289" stdDeviation="0.4011269"/>
  </filter>
  <filter id="a" style="color-interpolation-filters:sRGB" height="1.0931" width="1.0991" y="-.046545" x="-.049548">
   <feGaussianBlur id="feGaussianBlur139314" stdDeviation="1.9394928"/>
  </filter>
  <filter id="f" style="color-interpolation-filters:sRGB" height="1.1171" width="1.123" y="-.058571" x="-0.0615">
   <feGaussianBlur id="feGaussianBlur139340" stdDeviation="2.5885159"/>
  </filter>
 </defs>
 <g id="layer1" transform="translate(820.23 -550.72)">
  <g id="g139407" fill-rule="evenodd">
   <rect id="rect139405" opacity="0.812" rx="8.4092" ry="7.1938" height="225" width="400" y="550.72" x="-820.23" fill="#def5e7"/>
   <g id="g139364" transform="matrix(.52483 0 0 .50894 -291.65 325.46)">
    <path id="path138256" d="m-642.96 480.62c25.579 8.478 19.247 1.9424 35.355 23.234 12.805 9.0672 16.356 26.547 22.223 41.921-.67344 13.34-1.3469 28.137-2.0203 38.386-.32802 7.1074.72008 14.628 7.0711 23.739-4.2772 8.4544-8.5062 16.764-12.122 23.234-3.1452 6.6885-10.342 11.756-16.668 17.173-16.57 12.048-36.174 19.372-54.548 23.234-4.8085 1.3675-9.6362 2.7732-13.132 1.5152-10.599-.13775-13.505-3.3525-17.678-6.0609-8.4717-10.598-8.776-13.628-11.869-19.445l-7.8287-20.708c-4.9907-10.103-7.8081-25.097-10.607-35.86 1.0573-9.7185 3.15-18.108 5.5558-26.516-.0203-9.9399-1.8498-20.483 0-29.8l3.5355-20.203c3.6253-12.72 11.992-22.73 20.203-32.83 8.4179-2.6937 15.826-3.7039 22.223-3.0305l10.859 3.283 10.859-1.7678s6.566-2.5254 6.0609 3.5355c-.50507 6.0609 2.5254-3.0305 2.5254-3.0305z" fill="#ecbb9d"/>
    <path id="path138276" d="m-715.59 557.99c-.71717 2.1367.008 3.0115.58988 4.0115 3.7207 3.8791 9.5041 4.3829 15 5.3571 6.413.53362 5.901-.71985 7.5-1.4286-.12654-5.7107-2.7918-7.3746-4.3074-8.0682-5.0142-2.5951-11.796-4.1477-14.244-3.9267-4.116.59288-3.9534 2.4951-4.5383 4.0548z" fill="#a9a6a6"/>
    <path id="path138270" d="m-717.79 560.61c1.3862 2.6374 1.4849 6.2977 4.6862 9.5401 2.8382-1.1249 5.4607-1.3152 7.794-.25254 5.0062-.22314 5.2786-1.3931 7.2276-2.2276-2.4091-.742-3.2004-1.9098-8.5102-1.8885-4.463-.17579-7.5009-3.31-11.198-5.1715z" filter="url(#k)" fill="#41464c"/>
    <path id="path138274" opacity="0.839" d="m-693.93 563.43v3.9286c1.3652-1.3974 3.5468-1.3846 3.2143-5.7143-.51291-3.6144-5.2315-8.3369-7.8571-10.357-3.396-3.3763-11.573-4.743-15.673-4.347-3.1005.83797-5.3002 2.0963-5.8802 4.1106.97948 7.933 1.6284 10.551 2.2889 9.1452 2.758-5.876 4.4313-5.0264 6.4069-6.0516 6.572.22569 11.201 3.2902 15.947 5.1894.51766 1.3654 1.0353 1.0613 1.553 4.0963z" filter="url(#m)" fill="#2b201e"/>
    <path id="path138258" d="m-663.67 537.69c2.1871 1.0884 13.231-2.6183 15.476-1.1301 2.2211.36507 2.9243-1.4263 3.7167-1.3953 4.1318 1.0075 11.039.61652 20.203 0 8.6652-.21702 14.221 4.5886 20.203 7.0711-4.7212-2.8978-9.6338-6.7525-14.142-8.5863-1.0652-1.4469-2.0482-2.8733-4.9641-4.7829-4.6613-1.155-8.1432-2.5721-14.734-3.2983-9.6972.30614-16.578 1.6851-21.277 3.8953-4.0066 3.4122-3.8741 5.7207-4.4818 8.2265z" fill="#4c372b"/>
    <path id="path138260" d="m-719.23 535.67c6.6705-3.5105 12.533.51057 15.691 2.9718 6.4284-1.9248 7.9677.20206 11.078 2.079-3.5465-3.7185-6.6552-6.8533-12.122-13.132-2.5236-1.4719-5.9478-3.0222-12.242-2.9105-1.6968 6.8182-1.811 7.2653-2.5814 8.525z" fill="#61433a"/>
    <path id="path138264" d="m-696.5 635.67c-1.4039.45077-2.9773 1.2406-5.0508 3.0305 4.0406 4.209 2.9681 6.1192 12.122 12.627 4.1786 1.1297 8.0288 2.6426 14.142 1.5152 6.295-.88695 8.2005-2.5055 10.607-4.0406-8.2289-2.1835-14.002-3.7532-24.749-6.566 4.0414-.21635 10.319-.11326 16.668 0 7.1302-.60292 11.082-1.6031 15.657-2.5254-4.4685-.37318-15.021-3.2052-18.183-3.0305-3.5353-.60928-4.5386-1.098-14.647-2.0203-2.1887.82702-4.3773.81406-6.566 1.0102z" fill="url(#d)"/>
    <path id="path138802" opacity="0.874" d="m-655.59 640.57c-1.5398-.74323-1.7432-.74394-6.0609-3.0305-3.4344-3.9516-4.118-6.3883-14.142-13.132-3.3672-1.617-6.7344.29615-10.102.50507-5.5476-3.5595-5.695-2.3846-8.5863-2.0203-6.3064 3.3424-6.2136 7.6692-8.5863 11.617 2.1887 2.6489 4.3773 2.177 6.566 3.0305 2.9656-.43711 4.3784-1.2624 6.0609-2.0203 2.9299 1.1964 6.5524 3.14 8.5863 2.5254 5.5099-1.3239 6.1032-.18952 8.5863 0 7.0619 3.0364 12.41 2.1893 17.678 2.5254z" filter="url(#q)" fill="#7a3a29"/>
    <path id="path138262" d="m-655.59 639.41c-1.5398-.74323-1.7432-.74394-6.0609-3.0305-3.4344-3.9516-4.118-6.3883-14.142-13.132-3.3672-1.617-6.7344.29615-10.102.50507-5.5476-3.5595-5.695-2.3846-8.5863-2.0203-6.3064 3.3424-6.2136 7.6692-8.5863 11.617 2.1887 2.6489 4.3773 2.177 6.566 3.0305 2.9656-.43711 4.3784-1.2624 6.0609-2.0203 2.9299 1.1964 6.5524 3.14 8.5863 2.5254 5.5099-1.3239 6.1032-.18952 8.5863 0 7.0619 3.0364 12.41 2.1893 17.678 2.5254z" fill="url(#e)"/>
    <path id="path138266" d="m-657.1 639.71c-1.7745 3.9885-3.8078 7.5886-7.5762 8.5863-8.0812-1.3392-16.162-3.5433-24.244-6.566 6.3488.60837 12.337.73595 17.678 0 5.6621-.29421 10.158-1.0551 14.142-2.0203z" filter="url(#p)" fill="#dc9c8a"/>
    <path id="path138268" opacity="0.849" d="m-650.79 570.01c5.3173.62205 10.206 1.9577 16.162 1.5152 5.6793.83771 11.542-.46619 14.647-4.5457 1.3637-2.8181 2.2366-5.4096 6.566-9.5964-2.1208-.0426-2.0392-2.1499-7.5762 1.0102-.87345 4.8131-4.6848 5.4293-7.0711 8.0812-4.694.33672-7.9562.67343-16.609.028-1.1934.20625-3.2624 3.009-6.1196 3.5075z" filter="url(#h)" fill="#4d6a68"/>
    <path id="path138272" opacity="0.879" d="m-613.21 553.43c-.36423 3.9368-4.6059 4.6803-8.9286 5.3572-8.8033-6.8923-17.554-7.2152-23.214-3.9286-3.4268 3.3301-8.8408 10.209-9.2857 8.2143.77339-4.5536 2.8383-8.892 9.2857-12.5 6.851-2.3425 10.727-3.4608 17.321-1.5179 4.9018 1.6514 9.701 3.8166 14.821 4.375z" filter="url(#j)" fill="#635547"/>
    <path id="path138278" d="m-651.43 560.93c-.45203 1.5234-.61875 2.7616-.35715 3.5714 6.7055 2.2524 9.8434 1.73 14.643 2.5 4.3515.43469 6.8925-.0359 9.9107-.26786 6.4072-4.1323 4.9459-5.367 4.9107-7.2321l-2.3214-1.7857c-5.2383-4.0192-14.534-5.0842-19.286-2.8572-5.2678 2.2083-5.4664 4.0787-7.5 6.0714z" fill="#cbc2bc"/>
    <path id="path138280" opacity="0.689" d="m-638.4 553.73c-1.4634.0439-2.8298.24703-4.0312.59375a9.375 9.1964 0 0 0 -.95703 4.0215 9.375 9.1964 0 0 0 6.2578 8.6621c2.4536.24459 4.3165.19416 6.0293.0684a9.375 9.1964 0 0 0 6.4629 -8.7305 9.375 9.1964 0 0 0 -.0234 -.64063c-3.6018-2.7518-9.1059-4.1135-13.738-3.9746z" fill="#58c891"/>
    <path id="ellipse138286" opacity="0.812" d="m-635.31 554.42a3.7977 4.0411 84.403 0 0 -1.1244 3.0008 3.7977 4.0411 84.403 0 0 4.3929 3.3865 3.7977 4.0411 84.403 0 0 3.6519 -4.1749 3.7977 4.0411 84.403 0 0 -.14155 -.69438c-2.3631-.88344-4.6372-1.3717-6.779-1.5179z" fill="#285740"/>
    <path id="path138991" opacity=".28405" d="m-752.5 531.39a7.6506 7.3241 0 0 0 -.45703 .0156c2.6852 2.2577 6.5991 6.4275 7.0645 9.707.0359.46784.0381.8763.0195 1.25a7.6506 7.3241 0 0 0 1.0234 -3.6484 7.6506 7.3241 0 0 0 -7.6504 -7.3242z" fill="#69f0ae"/>
    <path id="ellipse138282" opacity="0.493" d="m-703.99 555.67a7.6506 7.3241 0 0 0 -.98243 3.584 7.6506 7.3241 0 0 0 7.6504 7.3242 7.6506 7.3241 0 0 0 3.3945 -.76367v-2.377c-.51766-3.035-1.037-2.7303-1.5547-4.0957-2.7396-1.0963-5.4502-2.5692-8.5078-3.6719z" fill="#06eb7b"/>
    <path id="ellipse138284" opacity="0.583" d="m-700.68 556.9c-.23025.45956-.34955.95688-.3502 1.4599-.0903 1.6319.47419 4.1376 3.1594 4.3163 2.7355-.0903 2.9308-1.0712 3.6831-1.708-.27826-.47914-.55859-.80783-.83684-1.5418-1.868-.7475-3.726-1.649-5.6554-2.5264z" fill="#080808"/>
    <ellipse id="ellipse138288" opacity="0.508" rx="2.5316" ry="2.1875" filter="url(#g)" cy="557.3" cx="-639.42" fill="#e6e6e6"/>
    <ellipse id="ellipse138290" opacity="0.658" rx="1.5941" ry="1.7411" filter="url(#l)" cy="559.1" cx="-702.77" fill="#dedede"/>
    <path id="path138292" opacity=".728" d="m-692.46 543.25c2.7034 6.9385 11.549 16.544 4.2932 33.335l-5.0508 11.617c-1.583 2.7722-7.5988 4.8032-9.849 12.627-2.7924.24146-3.9981 4.2772-5.5558-15.405 5.4511-.15755 10.458-3.7173 14.9-11.617 1.7467-3.6578 4.5517-4.5636 4.7982-12.122-.39095-4.0898-.24174-7.5155-10.607-17.93l-3.7881-4.0406c4.0886 3.2101 7.7797 4.6981 10.859 3.5355z" filter="url(#v)" fill="#a67a5b"/>
    <path id="path138294" opacity="0.824" d="m-694.61 592.11c-.95782 5.1414-3.2872 10.402 3.1567 14.9 2.7605 2.4155 5.3037 4.2874 8.0812 5.6821.85628 2.1562.318 3.3828.25254 4.9245-1.6268-1.743-2.3685-3.2648-2.6516-4.672-2.7849-.36632-5.2615-2.5586-8.0812-4.5457-2.1253-.52731-4.3315-.64983-5.8084-4.4194.0422-1.0607.19827-2.1441 1.894-3.5355l-.75762-2.9042c.18536-3.2091 2.5352-3.7127 3.9143-5.4296z" filter="url(#r)" fill="#a86e48"/>
    <path id="path138296" opacity="0.834" d="m-690.94 587.69c.75761 2.9252 1.5152 6.7238 2.2728 5.8084 2.4133 2.1186 4.7106 2.4618 6.4397 1.894-1.4209 1.1693-.42819 3.8295-4.9245 3.1567-2.3689-.75514-3.7958-.92827-5.5558-1.389-.60261-2.8162.0134-5.9806 1.7678-9.4702z" filter="url(#u)" fill="#d9a07a"/>
    <path id="path138298" opacity="0.804" d="m-670.11 609.03c-1.7677-.92597-2.0417-1.852-2.9042-2.7779.12224.20081-.90068.5755-6.4397.12627l-2.3991-.25254c-.13691.88388.56157 1.7678-1.7678 2.6516 1.0832.60474 1.7356.99405 2.1466 1.2627.38635-2.4726 1.1921-2.0093 1.894-2.2728.99806.24045 1.4216-.0937 3.0305.75762 1.7071-.39448 2.4365-.13714 3.1567.12627l3.5355 1.0102z" filter="url(#s)" fill="#5c3c2c"/>
    <path id="path138300" opacity=".85" d="m-667.96 597.16c1.0667 6.5277 10.701 10.14-2.7779 15.152-1.9695-.75761-3.6643-1.5152-2.6516-2.2728 5.5454.85162 8.0383-2.1757 7.5761-6.4397-.73842-.74213-1.8716-2.6685-3.283-5.4296z" filter="url(#t)" fill="#d29c81"/>
    <path id="path138302" opacity=".844" d="m-654.07 558.9-2.7779.3788c-.56572-6.446 3.8584-9.7735 6.8185-14.016 3.3458-2.537 9.8368-3.3585 15.657-4.5457 16.793 2.2357 19.797 5.8779 25.001 8.3338.52173 2.2337 1.3677 4.6737-.63135 5.3033-2.4334-.11692-4.5954-1.0323-6.8185-1.7678-3.684-.96167-8.3275-3.216-16.92-5.0508-3.5526.15112-6.7716 1.303-10.108 2.1032l-5.4755 3.357z" filter="url(#i)" fill="#d7b9ae"/>
    <path id="path138304" opacity="0.726" d="m-716.58 542.11c-4.4582 2.0624-2.2372 5.3958-2.2728 6.1872 3.283-2.0525 6.566-2.038 9.849-1.7678l8.5863 3.0304c2.4388 1.5585 4.6287 4.1569 6.7554 5.8715 1.336 1.2198 1.576.2478 1.5784-1.1996-1.6585-2.8705-4.7502-5.2632-7.3236-7.8287-2.4519-2.688-6.0871-4.5759-9.5964-5.3033-3.2728-.71869-5.4093.55108-8.0812.88388z" filter="url(#n)" fill="#c19b88"/>
    <path id="path138306" opacity=".769" d="m-609.46 559.15c-4.9619-.24555-5.8552 4.1587-7.6786 7.5-.73379 5.2946-.97817 6.1844-1.25 7.3214 3.7806 8.5782-4.7419 17.878 16.429 1.4286 3.5215-4.7442-1.6497-8.7868.35715-11.964-2.619-7.7499-5.2381-3.8379-7.8572-4.2857z" filter="url(#y)" fill="#bfc3b6"/>
    <path id="path138308" opacity="0.836" d="m-690.71 612.36c-1.5702 2.906 1.9744 1.082-6.389 8.9286-5.5171 3.9769-5.7879 7.2044-6.7857 10.536-.27683 5.0896 2.5747 10.832 10.318 18.929-.39368 2.2233-.79826 4.4085-.53571 8.9286l1.9643 7.6786c-4.2269-7.6166-9.4649-11.863-12.679-22.857-6.0702-15.135-12.011-25.61-18.393-51.964.8974-6.4798-2.5985-9.445 4.2857-20.714l5.5357 13.214c2.4405 2.3567 4.881.17259 7.3214-.17858 1.5612 2.1209 2.7116.85259 5.5357 13.393.38742 3.374-1.8846 6.5062 1.7857 10.179 2.3966 4.6928 5.3405 2.8187 8.0357 3.9286z" filter="url(#w)" fill="#d09878"/>
    <path id="path139294" d="m-649.28 479.35c11.769 3.6269 21.749 8.1088 30.157 9.719l11.007 13.009c8.3178 9.5692 11.382 17.737 15.744 24.009l6.5227 24.096-1.7244 35.59c-1.3906 8.4179 2.0974 17.193 7.3669 25.611-2.259 12.207-4.5506 28.538-4.9895 29.825-4.3919 16.123-5.9615 29.014-4.2932 34.363 2.7689 17.439 9.4914 25.15 15.509 31.542 6.94 15.894 18.439 23.695 32.787 28.815 3.9229 5.2133 9.002 7.7286 11.112 17.173.12798 15.425.22774 31.216 1.0102 38.133 10.316-3.0604 12.724 22.878 17.425 40.406 1.7743 18.071 10.65 38.678-5.0508 50.508l39.143-.75761c9.2104-26.669 24.799-6.9547 8.3338-30.81-2.3687-1.121-1.4195-4.2327-.50507-7.3236 17.77 22.681 11.951-3.0614 13.637-14.395 1.4947-9.6731 18.327-14.114 14.647-23.234 1.4419-6.2239-3.1501-15.465-8.3338-25.001 1.5752-11.364-1.2314-22.728-2.7779-34.093-17.767-5.6912-22.739-12.093-28.789-18.435-8.3638-17.705-1.7258-19.525.50508-26.011 7.8952-5.0897 6.2956-13.028 8.0812-19.951 19.206-41.457-10.377-43.739-10.607-48.235-12.316-14.06-15.516-34.593-19.698-49.497-4.3777-20.155-3.7046-39.588-3.5355-59.094l-2.0203-8.0812-5.5558 6.3135c-.63375-6.0536.71419-17.587 2.0203-28.789-4.0856-2.7649-25.761-46.365-36.113-47.73-45.317-6.5916-109.77-2.0203-164.65-3.0305-9.5718 3.8931-12.076 11.835-21.213 25.001-1.9711.78845-6.8451 41.034-4.5457 40.406 5.8948-1.6094-2.8526 23.006-3.5355 23.234-15.594 19.832-30.243 7.8838-44.447 6.0609 8.2468 7.4458 15.664 15.484 37.628 13.132-16.502 9.3526-11.862 16.591-16.415 24.749 3.8631 41.219 25.122 37.977 21.466 63.387-.63999 12.3-9.0939 21.181-20.456 28.789-7.0074 22.588 2.6937 22.392 4.0406 33.588-8.1167-34.334 8.1994-32.956 12.627-38.638 11.57-3.3496 12.085-14.437 17.678-21.971 2.5827 9.1986.92792 21.005-13.89 40.911-4.9537 26.566 15.489 24.749 23.234 37.123 20.341 32.729 9.2624 42.12 5.3033 46.72-16.004 15.224-30.211 10.539-43.184 9.3439 8.5835 1.4914 9.1752 5.4528 37.628 2.0203 4.0994 4.2136 5.8824 16.535 7.3236 30.052 6.3144-33.21 17.742-20.722 22.728-40.659-1.8271-25.623 6.8618-28.441-8.5863-54.548 6.3745 7.4067 12.859 15.417 17.93 15.657-8.0895-20.809-4.1993-17.658-5.0508-23.991 6.3797 11.784 12.995 20.269 20.708 13.385-1.5935-21.735-1.786-33.951-4.0406-44.447-13.163 3.1099-23.246-3.5592-28.032-8.8388-11.504-22.869-18.056-47.911-27.004-73.976-.84298-4.5877 3.0185-17.016 4.5278-25.524-.8735-18.613 2.772-38.678 10.625-65.346l13.872-18.497c14.255-4.6326 16.939-3.6109 22.92-3.7881 4.6907 2.0967 12.649 4.9256 13.698 5.8084 4.4738.43322 6.2262-1.855 8.0812-4.0406z" fill="#51332b"/>
    <path id="path138314" d="m-582.61 610.93-12.122 27.022-22.223 16.668-38.638 16.415-16.92 4.0406 5.5558 35.355 42.679-46.972 22.981-14.395 14.647-17.93.50507 11.364 7.5762-12.627-2.2728-19.445z" filter="url(#a)" fill="#a46f50"/>
    <path id="path138310" opacity="0.791" d="m-598.04 581.29c-11.519 8.5007-23.674 16.901-26.429 26.786.23062 2.8296-1.1034 5.8634 9.6429 7.3214 9.1756-.23211 22.536-4.1032 24.286-12.5-.93261.98577.42271-9.0868 2.3214-21.786-2.2497-1.2572-4.335-2.7257-9.8214.17858z" filter="url(#x)" fill="#dea480"/>
    <path id="path138312" opacity="0.865" d="m-634.29 503.61c-14.161 4.7238-31.497 4.861-40.179 17.5-1.5138 7.9636-5.5683 13.618-.17857 27.857-1.9818 5.2794-5.1924 7.6096-10.536 4.8214-8.6713-12.212-4.7915-31.031-26.071-36.607-3.5117-2.996 2.133-17.951 16.786-31.25 16.817-4.5454 20.464.027 29.464.89286 9.7902 2.6863 19.618 3.1684 29.464 2.5 11.476 4.7619 9.2262 9.5238 1.25 14.286z" filter="url(#z)" fill="#e4ad8f"/>
    <path id="path139316" d="m-582.61 610.93-12.122 27.022-22.223 16.668-38.638 16.415-16.92 4.0406 5.5558 35.355 42.679-46.972 22.981-14.395 14.647-17.93.50507 11.364 7.5762-12.627-2.2728-19.445z" filter="url(#a)" fill="#a46f50"/>
    <path id="path138316" d="m-667.46 710.93-6.8185 20.708 12.879-3.0305 8.5863 9.0914 20.961-14.647 40.911-13.89 17.678-4.7982-15.405-29.547 2.0203-28.537 3.283-8.3338-3.7881-6.3134-15.152 18.183-21.718 14.142z" filter="url(#f)" fill="#e1aa89"/>
    <path id="path138868" opacity=".80731" d="m-657.01 639.71c-1.328 3.8099-3.9864 7.8564-7.7547 8.8542-7.5761-1.718-19.25-4.3946-24.901-6.4397 4.8291-.36934 14.602.25253 18.514-.39413 3.43-.47278 7.2111-.51936 14.142-2.0203z" filter="url(#o)" fill="#dc9c8a"/>
    <path id="path138922" opacity=".71262" d="m-659.67 639.71c-1.328 3.8099-3.9864 7.8564-7.7547 8.8542-7.5761-1.718-19.25-4.3946-24.901-6.4397 4.8291-.36934 14.602.25253 18.514-.39413 3.43-.47278 7.2111-.51936 14.142-2.0203z" filter="url(#b)" fill="#dc9c8a"/>
    <path id="path138948" opacity=".71262" d="m-662.32 639.21c-1.328 3.8099-3.9864 7.8564-7.7547 8.8542-7.5761-1.718-19.25-4.3946-24.901-6.4397 4.8291-.36934 14.602.25253 18.514-.39413 3.43-.47278 7.2111-.51936 14.142-2.0203z" filter="url(#b)" fill="url(#c)"/>
    <path id="path139342" d="m-668.17 713.79-6.8185 20.708 12.879-3.0305 8.5863 9.0914 20.961-14.647 40.911-13.89 17.678-4.7982-15.405-29.547 2.0203-28.537 3.283-8.3338-3.7881-6.3134-15.152 18.183-21.718 14.142z" fill="#e1aa89"/>
   </g>
  </g>
 </g>
</svg>


